<svg id="圖層_1" data-name="圖層 1" xmlns="http://www.w3.org/2000/svg" viewBox="0 0 438.07 103.3"><defs><style>.cls-1{fill:#fff;}</style></defs><title>logo-lostAndFound</title><path class="cls-1" d="M54.1,234.1c-1.09,17.16-.62,36,4.19,52.67,1.83,6.33,6.77,6.49,12.69,6.76,7.33.33,14.4-1,21.58-2.27,3.16-.57,1.82-5.39-1.33-4.82-5.71,1-11.4,2.16-17.21,2.17-2.78,0-8.68.59-10.58-1.91-1.44-1.91-1.61-7.24-2-9.5a178.33,178.33,0,0,1-2.32-43.1c.21-3.22-4.79-3.2-5,0Z" transform="translate(-53.61 -203.98)"/><path class="cls-1" d="M97.52,244.22c-5.71,5.59-10.47,13.63-6.91,21.71,3.32,7.52,13.1,9.45,20.36,7.21s12.65-9.46,11.82-17.25c-1-9.19-8.85-14.81-16.73-18-3-1.22-4.27,3.62-1.33,4.82,5.23,2.15,10.49,5.48,12.42,11.09a11.32,11.32,0,0,1-7.51,14.56c-5.15,1.64-13,.58-14.82-5.34s2.27-11.34,6.24-15.23c2.3-2.25-1.24-5.79-3.54-3.53Z" transform="translate(-53.61 -203.98)"/><path class="cls-1" d="M148.31,246.18c-4.73-1.34-11.87-1.87-15.82,1.79s-.94,8.51,1.74,11.78c5.21,6.37,13.78,14.9,6,22.87-4.23,4.35-19.48,12.2-21.19,1.87-.53-3.17-5.35-1.83-4.82,1.33,2.59,15.62,24.41,6.69,30.67-.94,4.39-5.35,4.31-12,1.14-17.93-1.87-3.52-4.66-6.37-7.19-9.41-2-2.39-4.46-5.34-.3-6.94,2.58-1,5.89-.31,8.4.4,3.1.88,4.43-3.94,1.33-4.82Z" transform="translate(-53.61 -203.98)"/><path class="cls-1" d="M152.13,265.75a159,159,0,0,0,24-1.47c3.18-.43,1.83-5.25-1.33-4.82a151.88,151.88,0,0,1-22.66,1.29c-3.22-.05-3.22,4.95,0,5Z" transform="translate(-53.61 -203.98)"/><path class="cls-1" d="M170.83,241.26a242.83,242.83,0,0,0-11.53,26.86c-1,2.79-3.45,7.65-2.06,10.64,2,4.31,10.6,3.75,14.26,3.34,3.17-.35,3.2-5.35,0-5-2.74.31-6.35.74-8.91-.48-1.78-.84-.42.55-.6-.29-.12-.57.41-1.59.58-2.17,1-3.42,2.27-6.77,3.58-10.08,2.72-6.88,5.7-13.68,9-20.3,1.44-2.87-2.88-5.4-4.32-2.52Z" transform="translate(-53.61 -203.98)"/><path class="cls-1" d="M187.77,282.64a322.45,322.45,0,0,1,15.38-38.2q4.35-9,9.24-17.76c1.77-3.18,3.61-6.32,5.49-9.44,1.11-1.82,3.72-7.72,5.86-7.79,3.52-.11,8.74,12.48,10,15.35a152.41,152.41,0,0,1,6.75,18.68A300.23,300.23,0,0,1,250,285.37c.49,3.18,5.31,1.83,4.82-1.32a287.19,287.19,0,0,0-11.86-49.43,113,113,0,0,0-8.24-19.07C232.61,211.85,229,204,223.9,204c-5.64,0-8.92,8.37-11.27,12.3q-6.07,10.16-11.39,20.74A332,332,0,0,0,183,281.31c-1,3.06,3.81,4.38,4.82,1.33Z" transform="translate(-53.61 -203.98)"/><path class="cls-1" d="M205,239.17q16.37-.45,32.65-2.07c3.17-.31,3.21-5.32,0-5q-16.29,1.64-32.65,2.07c-3.21.09-3.23,5.09,0,5Z" transform="translate(-53.61 -203.98)"/><path class="cls-1" d="M256.34,242.51q.95,14.22.65,28.48c-.05,2.74,4.44,3.49,4.91.66,1.16-6.83,2.51-15.13,8.94-19.09,2.64-1.63,3.44-1.29,4.65,1.81a49.81,49.81,0,0,1,1.67,5.1,51.34,51.34,0,0,1,1.64,11.71c.11,3.21,5.11,3.22,5,0A55.41,55.41,0,0,0,280.31,253c-1.39-3.64-2.71-7.4-7.27-6.67-11,1.75-14.42,14.84-16,23.95L262,271q.3-14.26-.65-28.48c-.21-3.2-5.21-3.22-5,0Z" transform="translate(-53.61 -203.98)"/><path class="cls-1" d="M301.62,257.84c-6.95-1.29-12.26,3.49-14.09,10-1.28,4.51-2.82,15.65,5.39,12.82,16.6-5.72,13.28-30.8,10.45-43.67-.69-3.16-5.44-1.81-4.82,1.33a306.64,306.64,0,0,0,13.9,48.45c1.13,3,6,1.69,4.82-1.33A306.64,306.64,0,0,1,303.37,237l-4.82,1.33c2,8.94,3.78,20.26.31,29.1-.65,1.67-4.62,9.17-7.45,8.32-.55-.16.84-6.46,1.15-7.35,1.16-3.31,3.81-6.45,7.73-5.71,3.15.58,4.5-4.24,1.33-4.83Z" transform="translate(-53.61 -203.98)"/><path class="cls-1" d="M370.11,236.65c-9.4-5.1-31.89-12.66-37.91.89-3.42,7.7-4,17.65-5.2,25.88q-2,13.69-2.86,27.5c-.21,3.21,4.79,3.2,5,0a333.31,333.31,0,0,1,5.62-43.26c.56-2.82.86-6.45,2.4-8.95,2.28-3.72,7-3.51,10.84-3.35A45,45,0,0,1,367.59,241c2.83,1.53,5.36-2.78,2.52-4.32Z" transform="translate(-53.61 -203.98)"/><path class="cls-1" d="M333.49,258.56l16.69,3.18c3.15.6,4.49-4.22,1.33-4.82l-16.69-3.18c-3.15-.6-4.5,4.22-1.33,4.82Z" transform="translate(-53.61 -203.98)"/><path class="cls-1" d="M357,264.38c-3.83,6.17-5.17,14.36-.06,20.29a12.79,12.79,0,0,0,16.48,2.2c5.07-3.23,6.84-10,4.86-15.53-2.42-6.77-9.66-9.36-16-11.08-3.11-.85-4.43,4-1.33,4.82,3.63,1,7.61,2,10.41,4.68,3.14,3,3.8,8.27.82,11.64a7.74,7.74,0,0,1-11.94-.57c-3.16-4.36-1.5-9.79,1.06-13.93,1.7-2.74-2.62-5.25-4.31-2.52Z" transform="translate(-53.61 -203.98)"/><path class="cls-1" d="M382.66,262.93c.75,5.37,1.21,20.77,10.12,17.3,7.11-2.78,12.25-9.63,14.92-16.5l-4.83-1.33a26.76,26.76,0,0,0,8.24,25.16c2.38,2.17,5.92-1.36,3.54-3.53a21.63,21.63,0,0,1-6.95-20.3,2.51,2.51,0,0,0-4.83-1.33c-1.81,4.67-5.39,10.05-10.11,12.21-3.38,1.55-3.14-1.63-3.77-4.44s-1.1-5.69-1.51-8.57c-.44-3.17-5.26-1.82-4.82,1.33Z" transform="translate(-53.61 -203.98)"/><path class="cls-1" d="M422.67,264.26l.84,22a2.52,2.52,0,0,0,4.92.67c1.43-4.23,5-9.6,9.67-10.76,5.74-1.42,5.39,10.25,5.54,14.1.11,3.2,5.11,3.22,5,0-.21-5.63-.29-20.38-8.94-19.77-7.68.55-13.85,8.45-16.1,15.1l4.91.66-.84-22c-.13-3.2-5.13-3.22-5,0Z" transform="translate(-53.61 -203.98)"/><path class="cls-1" d="M487,302.39c-11-2.6-25.44-6.14-28.37-19-.55-2.38-.92-6.27.73-8.35,2.79-3.53,5.48,2.82,6.58,5.26,2.6,5.83,3.51,12.34,4.46,18.6.37,2.48,4.28,2.28,4.82,0,6.71-28.66,12.53-57.3,16.41-86.48.42-3.18-4.58-3.15-5,0-3.82,28.73-9.63,56.94-16.23,85.15h4.82c-1.32-8.75-2.73-18.89-8.63-25.94-5.72-6.83-12-1.57-13.15,5.64-3.1,18.87,17.92,26.54,32.24,29.91,3.12.74,4.46-4.08,1.32-4.82Z" transform="translate(-53.61 -203.98)"/></svg>