<?xml version="1.0" standalone="no"?>
<svg xmlns="http://www.w3.org/2000/svg" width="400" height="400"><defs><clipPath id="clip-path-dot-color"><path d="M 15 87v 9h 9v -4.5a 4.5 4.5, 0, 0, 0, -4.5 -4.5" transform="rotate(-90,19.5,91.5)"/><path d="M 15 105v 9h 9v -4.5a 4.5 4.5, 0, 0, 0, -4.5 -4.5" transform="rotate(-90,19.5,109.5)"/><rect x="15" y="114" width="9" height="9" transform="rotate(0,19.5,118.5)"/><path d="M 15 141v 9h 9v -4.5a 4.5 4.5, 0, 0, 0, -4.5 -4.5" transform="rotate(-90,19.5,145.5)"/><rect x="15" y="150" width="9" height="9" transform="rotate(0,19.5,154.5)"/><rect x="15" y="159" width="9" height="9" transform="rotate(0,19.5,163.5)"/><path d="M 15 231v 4.5a 4.5 4.5, 0, 0, 0, 4.5 4.5h 4.5v -4.5a 4.5 4.5, 0, 0, 0, -4.5 -4.5" transform="rotate(90,19.5,235.5)"/><path d="M 15 267v 9h 9v -4.5a 4.5 4.5, 0, 0, 0, -4.5 -4.5" transform="rotate(-90,19.5,271.5)"/><rect x="15" y="276" width="9" height="9" transform="rotate(0,19.5,280.5)"/><path d="M 15 294v 9h 9v -4.5a 4.5 4.5, 0, 0, 0, -4.5 -4.5" transform="rotate(-90,19.5,298.5)"/><rect x="15" y="303" width="9" height="9" transform="rotate(0,19.5,307.5)"/><rect x="24" y="87" width="9" height="9" transform="rotate(0,28.5,91.5)"/><path d="M 24 114v 9h 9v -4.5a 4.5 4.5, 0, 0, 0, -4.5 -4.5" transform="rotate(90,28.5,118.5)"/><rect x="24" y="141" width="9" height="9" transform="rotate(0,28.5,145.5)"/><rect x="24" y="150" width="9" height="9" transform="rotate(0,28.5,154.5)"/><rect x="24" y="159" width="9" height="9" transform="rotate(0,28.5,163.5)"/><rect x="24" y="168" width="9" height="9" transform="rotate(0,28.5,172.5)"/><path d="M 24 177v 9h 9v -4.5a 4.5 4.5, 0, 0, 0, -4.5 -4.5" transform="rotate(90,28.5,181.5)"/><path d="M 24 195v 4.5a 4.5 4.5, 0, 0, 0, 4.5 4.5h 4.5v -4.5a 4.5 4.5, 0, 0, 0, -4.5 -4.5" transform="rotate(90,28.5,199.5)"/><path d="M 24 258v 9h 9v -4.5a 4.5 4.5, 0, 0, 0, -4.5 -4.5" transform="rotate(-90,28.5,262.5)"/><rect x="24" y="267" width="9" height="9" transform="rotate(0,28.5,271.5)"/><rect x="24" y="276" width="9" height="9" transform="rotate(0,28.5,280.5)"/><path d="M 24 303v 9h 9v -4.5a 4.5 4.5, 0, 0, 0, -4.5 -4.5" transform="rotate(90,28.5,307.5)"/><rect x="33" y="87" width="9" height="9" transform="rotate(0,37.5,91.5)"/><rect x="33" y="96" width="9" height="9" transform="rotate(0,37.5,100.5)"/><rect x="33" y="105" width="9" height="9" transform="rotate(0,37.5,109.5)"/><path d="M 33 123v 9h 9v -4.5a 4.5 4.5, 0, 0, 0, -4.5 -4.5" transform="rotate(-90,37.5,127.5)"/><path d="M 33 141v 9h 9v -4.5a 4.5 4.5, 0, 0, 0, -4.5 -4.5" transform="rotate(90,37.5,145.5)"/><rect x="33" y="159" width="9" height="9" transform="rotate(0,37.5,163.5)"/><rect x="33" y="168" width="9" height="9" transform="rotate(0,37.5,172.5)"/><path d="M 33 204v 9h 9v -4.5a 4.5 4.5, 0, 0, 0, -4.5 -4.5" transform="rotate(-90,37.5,208.5)"/><path d="M 33 249v 4.5a 4.5 4.5, 0, 0, 0, 4.5 4.5h 4.5v -4.5a 4.5 4.5, 0, 0, 0, -4.5 -4.5" transform="rotate(90,37.5,253.5)"/><rect x="33" y="267" width="9" height="9" transform="rotate(0,37.5,271.5)"/><rect x="33" y="276" width="9" height="9" transform="rotate(0,37.5,280.5)"/><rect x="33" y="285" width="9" height="9" transform="rotate(0,37.5,289.5)"/><path d="M 33 294v 9h 9v -4.5a 4.5 4.5, 0, 0, 0, -4.5 -4.5" transform="rotate(90,37.5,298.5)"/><rect x="42" y="96" width="9" height="9" transform="rotate(0,46.5,100.5)"/><path d="M 42 105v 9h 9v -4.5a 4.5 4.5, 0, 0, 0, -4.5 -4.5" transform="rotate(90,46.5,109.5)"/><path d="M 42 123v 9h 9v -4.5a 4.5 4.5, 0, 0, 0, -4.5 -4.5" transform="rotate(90,46.5,127.5)"/><rect x="42" y="159" width="9" height="9" transform="rotate(0,46.5,163.5)"/><rect x="42" y="168" width="9" height="9" transform="rotate(0,46.5,172.5)"/><rect x="42" y="177" width="9" height="9" transform="rotate(0,46.5,181.5)"/><rect x="42" y="186" width="9" height="9" transform="rotate(0,46.5,190.5)"/><rect x="42" y="204" width="9" height="9" transform="rotate(0,46.5,208.5)"/><rect x="42" y="213" width="9" height="9" transform="rotate(0,46.5,217.5)"/><path d="M 42 222v 9h 9v -4.5a 4.5 4.5, 0, 0, 0, -4.5 -4.5" transform="rotate(90,46.5,226.5)"/><path d="M 51 114v 9h 9v -4.5a 4.5 4.5, 0, 0, 0, -4.5 -4.5" transform="rotate(-90,55.5,118.5)"/><path d="M 51 132v 9h 9v -4.5a 4.5 4.5, 0, 0, 0, -4.5 -4.5" transform="rotate(-90,55.5,136.5)"/><rect x="51" y="141" width="9" height="9" transform="rotate(0,55.5,145.5)"/><path d="M 51 150v 9h 9v -4.5a 4.5 4.5, 0, 0, 0, -4.5 -4.5" transform="rotate(90,55.5,154.5)"/><rect x="51" y="168" width="9" height="9" transform="rotate(0,55.5,172.5)"/><rect x="51" y="177" width="9" height="9" transform="rotate(0,55.5,181.5)"/><rect x="51" y="186" width="9" height="9" transform="rotate(0,55.5,190.5)"/><path d="M 51 240v 9h 9v -4.5a 4.5 4.5, 0, 0, 0, -4.5 -4.5" transform="rotate(-90,55.5,244.5)"/><rect x="51" y="249" width="9" height="9" transform="rotate(0,55.5,253.5)"/><path d="M 51 267v 9h 9v -4.5a 4.5 4.5, 0, 0, 0, -4.5 -4.5" transform="rotate(-90,55.5,271.5)"/><path d="M 51 285v 9h 9v -4.5a 4.5 4.5, 0, 0, 0, -4.5 -4.5" transform="rotate(-90,55.5,289.5)"/><rect x="51" y="294" width="9" height="9" transform="rotate(0,55.5,298.5)"/><rect x="51" y="303" width="9" height="9" transform="rotate(0,55.5,307.5)"/><path d="M 60 87v 9h 9v -4.5a 4.5 4.5, 0, 0, 0, -4.5 -4.5" transform="rotate(-90,64.5,91.5)"/><rect x="60" y="96" width="9" height="9" transform="rotate(0,64.5,100.5)"/><rect x="60" y="105" width="9" height="9" transform="rotate(0,64.5,109.5)"/><rect x="60" y="114" width="9" height="9" transform="rotate(0,64.5,118.5)"/><rect x="60" y="123" width="9" height="9" transform="rotate(0,64.5,127.5)"/><rect x="60" y="132" width="9" height="9" transform="rotate(0,64.5,136.5)"/><rect x="60" y="141" width="9" height="9" transform="rotate(0,64.5,145.5)"/><rect x="60" y="186" width="9" height="9" transform="rotate(0,64.5,190.5)"/><rect x="60" y="195" width="9" height="9" transform="rotate(0,64.5,199.5)"/><rect x="60" y="204" width="9" height="9" transform="rotate(0,64.5,208.5)"/><rect x="60" y="213" width="9" height="9" transform="rotate(0,64.5,217.5)"/><rect x="60" y="222" width="9" height="9" transform="rotate(0,64.5,226.5)"/><rect x="60" y="231" width="9" height="9" transform="rotate(0,64.5,235.5)"/><rect x="60" y="249" width="9" height="9" transform="rotate(0,64.5,253.5)"/><rect x="60" y="258" width="9" height="9" transform="rotate(0,64.5,262.5)"/><rect x="60" y="267" width="9" height="9" transform="rotate(0,64.5,271.5)"/><path d="M 60 276v 9h 9v -4.5a 4.5 4.5, 0, 0, 0, -4.5 -4.5" transform="rotate(90,64.5,280.5)"/><rect x="60" y="303" width="9" height="9" transform="rotate(0,64.5,307.5)"/><rect x="69" y="87" width="9" height="9" transform="rotate(0,73.5,91.5)"/><path d="M 69 105v 9h 9v -4.5a 4.5 4.5, 0, 0, 0, -4.5 -4.5" transform="rotate(90,73.5,109.5)"/><path d="M 69 123v 9h 9v -4.5a 4.5 4.5, 0, 0, 0, -4.5 -4.5" transform="rotate(90,73.5,127.5)"/><rect x="69" y="141" width="9" height="9" transform="rotate(0,73.5,145.5)"/><path d="M 69 159v 9h 9v -4.5a 4.5 4.5, 0, 0, 0, -4.5 -4.5" transform="rotate(-90,73.5,163.5)"/><path d="M 69 177v 4.5a 4.5 4.5, 0, 0, 0, 4.5 4.5h 4.5v -4.5a 4.5 4.5, 0, 0, 0, -4.5 -4.5" transform="rotate(90,73.5,181.5)"/><path d="M 69 195v 9h 9v -4.5a 4.5 4.5, 0, 0, 0, -4.5 -4.5" transform="rotate(90,73.5,199.5)"/><path d="M 69 213v 9h 9v -4.5a 4.5 4.5, 0, 0, 0, -4.5 -4.5" transform="rotate(90,73.5,217.5)"/><path d="M 69 231v 9h 9v -4.5a 4.5 4.5, 0, 0, 0, -4.5 -4.5" transform="rotate(90,73.5,235.5)"/><rect x="69" y="249" width="9" height="9" transform="rotate(0,73.5,253.5)"/><rect x="69" y="267" width="9" height="9" transform="rotate(0,73.5,271.5)"/><path d="M 69 285v 4.5a 4.5 4.5, 0, 0, 0, 4.5 4.5h 4.5v -4.5a 4.5 4.5, 0, 0, 0, -4.5 -4.5" transform="rotate(90,73.5,289.5)"/><path d="M 69 303v 9h 9v -4.5a 4.5 4.5, 0, 0, 0, -4.5 -4.5" transform="rotate(90,73.5,307.5)"/><rect x="78" y="87" width="9" height="9" transform="rotate(0,82.5,91.5)"/><path d="M 78 96v 9h 9v -4.5a 4.5 4.5, 0, 0, 0, -4.5 -4.5" transform="rotate(90,82.5,100.5)"/><path d="M 78 132v 9h 9v -4.5a 4.5 4.5, 0, 0, 0, -4.5 -4.5" transform="rotate(-90,82.5,136.5)"/><path d="M 78 141v 9h 9v -4.5a 4.5 4.5, 0, 0, 0, -4.5 -4.5" transform="rotate(90,82.5,145.5)"/><rect x="78" y="159" width="9" height="9" transform="rotate(0,82.5,163.5)"/><rect x="78" y="168" width="9" height="9" transform="rotate(0,82.5,172.5)"/><rect x="78" y="249" width="9" height="9" transform="rotate(0,82.5,253.5)"/><path d="M 78 267v 9h 9v -4.5a 4.5 4.5, 0, 0, 0, -4.5 -4.5" transform="rotate(90,82.5,271.5)"/><path d="M 78 294v 4.5a 4.5 4.5, 0, 0, 0, 4.5 4.5h 4.5v -4.5a 4.5 4.5, 0, 0, 0, -4.5 -4.5" transform="rotate(90,82.5,298.5)"/><path d="M 87 33v 9h 9v -4.5a 4.5 4.5, 0, 0, 0, -4.5 -4.5" transform="rotate(-90,91.5,37.5)"/><rect x="87" y="42" width="9" height="9" transform="rotate(0,91.5,46.5)"/><path d="M 87 51v 9h 9v -4.5a 4.5 4.5, 0, 0, 0, -4.5 -4.5" transform="rotate(90,91.5,55.5)"/><path d="M 87 69v 4.5a 4.5 4.5, 0, 0, 0, 4.5 4.5h 4.5v -4.5a 4.5 4.5, 0, 0, 0, -4.5 -4.5" transform="rotate(90,91.5,73.5)"/><rect x="87" y="87" width="9" height="9" transform="rotate(0,91.5,91.5)"/><path d="M 87 105v 4.5a 4.5 4.5, 0, 0, 0, 4.5 4.5h 4.5v -4.5a 4.5 4.5, 0, 0, 0, -4.5 -4.5" transform="rotate(90,91.5,109.5)"/><path d="M 87 150v 4.5a 4.5 4.5, 0, 0, 0, 4.5 4.5h 4.5v -4.5a 4.5 4.5, 0, 0, 0, -4.5 -4.5" transform="rotate(90,91.5,154.5)"/><rect x="87" y="168" width="9" height="9" transform="rotate(0,91.5,172.5)"/><rect x="87" y="177" width="9" height="9" transform="rotate(0,91.5,181.5)"/><path d="M 87 195v 9h 9v -4.5a 4.5 4.5, 0, 0, 0, -4.5 -4.5" transform="rotate(-90,91.5,199.5)"/><path d="M 87 204v 9h 9v -4.5a 4.5 4.5, 0, 0, 0, -4.5 -4.5" transform="rotate(90,91.5,208.5)"/><path d="M 87 222v 9h 9v -4.5a 4.5 4.5, 0, 0, 0, -4.5 -4.5" transform="rotate(-90,91.5,226.5)"/><rect x="87" y="231" width="9" height="9" transform="rotate(0,91.5,235.5)"/><rect x="87" y="249" width="9" height="9" transform="rotate(0,91.5,253.5)"/><path d="M 87 276v 9h 9v -4.5a 4.5 4.5, 0, 0, 0, -4.5 -4.5" transform="rotate(-90,91.5,280.5)"/><path d="M 87 303v 9h 9v -4.5a 4.5 4.5, 0, 0, 0, -4.5 -4.5" transform="rotate(-90,91.5,307.5)"/><rect x="87" y="312" width="9" height="9" transform="rotate(0,91.5,316.5)"/><rect x="87" y="321" width="9" height="9" transform="rotate(0,91.5,325.5)"/><rect x="87" y="330" width="9" height="9" transform="rotate(0,91.5,334.5)"/><path d="M 87 357v 9h 9v -4.5a 4.5 4.5, 0, 0, 0, -4.5 -4.5" transform="rotate(-90,91.5,361.5)"/><rect x="87" y="366" width="9" height="9" transform="rotate(0,91.5,370.5)"/><rect x="87" y="375" width="9" height="9" transform="rotate(0,91.5,379.5)"/><path d="M 96 24v 9h 9v -4.5a 4.5 4.5, 0, 0, 0, -4.5 -4.5" transform="rotate(-90,100.5,28.5)"/><rect x="96" y="33" width="9" height="9" transform="rotate(0,100.5,37.5)"/><path d="M 96 42v 9h 9v -4.5a 4.5 4.5, 0, 0, 0, -4.5 -4.5" transform="rotate(90,100.5,46.5)"/><path d="M 96 87v 9h 9v -4.5a 4.5 4.5, 0, 0, 0, -4.5 -4.5" transform="rotate(90,100.5,91.5)"/><path d="M 96 159v 9h 9v -4.5a 4.5 4.5, 0, 0, 0, -4.5 -4.5" transform="rotate(-90,100.5,163.5)"/><rect x="96" y="168" width="9" height="9" transform="rotate(0,100.5,172.5)"/><rect x="96" y="177" width="9" height="9" transform="rotate(0,100.5,181.5)"/><rect x="96" y="222" width="9" height="9" transform="rotate(0,100.5,226.5)"/><path d="M 96 231v 9h 9v -4.5a 4.5 4.5, 0, 0, 0, -4.5 -4.5" transform="rotate(90,100.5,235.5)"/><path d="M 96 249v 9h 9v -4.5a 4.5 4.5, 0, 0, 0, -4.5 -4.5" transform="rotate(90,100.5,253.5)"/><path d="M 96 267v 9h 9v -4.5a 4.5 4.5, 0, 0, 0, -4.5 -4.5" transform="rotate(-90,100.5,271.5)"/><rect x="96" y="276" width="9" height="9" transform="rotate(0,100.5,280.5)"/><path d="M 96 294v 9h 9v -4.5a 4.5 4.5, 0, 0, 0, -4.5 -4.5" transform="rotate(-90,100.5,298.5)"/><rect x="96" y="303" width="9" height="9" transform="rotate(0,100.5,307.5)"/><rect x="96" y="312" width="9" height="9" transform="rotate(0,100.5,316.5)"/><rect x="96" y="321" width="9" height="9" transform="rotate(0,100.5,325.5)"/><rect x="96" y="330" width="9" height="9" transform="rotate(0,100.5,334.5)"/><path d="M 96 339v 9h 9v -4.5a 4.5 4.5, 0, 0, 0, -4.5 -4.5" transform="rotate(90,100.5,343.5)"/><rect x="96" y="357" width="9" height="9" transform="rotate(0,100.5,361.5)"/><rect x="96" y="366" width="9" height="9" transform="rotate(0,100.5,370.5)"/><path d="M 96 375v 9h 9v -4.5a 4.5 4.5, 0, 0, 0, -4.5 -4.5" transform="rotate(90,100.5,379.5)"/><path d="M 105 15v 9h 9v -4.5a 4.5 4.5, 0, 0, 0, -4.5 -4.5" transform="rotate(-90,109.5,19.5)"/><rect x="105" y="33" width="9" height="9" transform="rotate(0,109.5,37.5)"/><path d="M 105 51v 9h 9v -4.5a 4.5 4.5, 0, 0, 0, -4.5 -4.5" transform="rotate(-90,109.5,55.5)"/><rect x="105" y="60" width="9" height="9" transform="rotate(0,109.5,64.5)"/><path d="M 105 69v 9h 9v -4.5a 4.5 4.5, 0, 0, 0, -4.5 -4.5" transform="rotate(90,109.5,73.5)"/><path d="M 105 105v 9h 9v -4.5a 4.5 4.5, 0, 0, 0, -4.5 -4.5" transform="rotate(-90,109.5,109.5)"/><path d="M 105 141v 9h 9v -4.5a 4.5 4.5, 0, 0, 0, -4.5 -4.5" transform="rotate(-90,109.5,145.5)"/><path d="M 105 150v 9h 9v -4.5a 4.5 4.5, 0, 0, 0, -4.5 -4.5" transform="rotate(90,109.5,154.5)"/><rect x="105" y="168" width="9" height="9" transform="rotate(0,109.5,172.5)"/><path d="M 105 177v 9h 9v -4.5a 4.5 4.5, 0, 0, 0, -4.5 -4.5" transform="rotate(90,109.5,181.5)"/><path d="M 105 195v 9h 9v -4.5a 4.5 4.5, 0, 0, 0, -4.5 -4.5" transform="rotate(-90,109.5,199.5)"/><path d="M 105 222v 9h 9v -4.5a 4.5 4.5, 0, 0, 0, -4.5 -4.5" transform="rotate(90,109.5,226.5)"/><path d="M 105 240v 4.5a 4.5 4.5, 0, 0, 0, 4.5 4.5h 4.5v -4.5a 4.5 4.5, 0, 0, 0, -4.5 -4.5" transform="rotate(90,109.5,244.5)"/><path d="M 105 258v 9h 9v -4.5a 4.5 4.5, 0, 0, 0, -4.5 -4.5" transform="rotate(-90,109.5,262.5)"/><rect x="105" y="267" width="9" height="9" transform="rotate(0,109.5,271.5)"/><path d="M 105 276v 9h 9v -4.5a 4.5 4.5, 0, 0, 0, -4.5 -4.5" transform="rotate(90,109.5,280.5)"/><rect x="105" y="303" width="9" height="9" transform="rotate(0,109.5,307.5)"/><rect x="105" y="321" width="9" height="9" transform="rotate(0,109.5,325.5)"/><rect x="105" y="366" width="9" height="9" transform="rotate(0,109.5,370.5)"/><rect x="114" y="15" width="9" height="9" transform="rotate(0,118.5,19.5)"/><rect x="114" y="33" width="9" height="9" transform="rotate(0,118.5,37.5)"/><rect x="114" y="42" width="9" height="9" transform="rotate(0,118.5,46.5)"/><path d="M 114 51v 9h 9v -4.5a 4.5 4.5, 0, 0, 0, -4.5 -4.5" transform="rotate(90,118.5,55.5)"/><path d="M 114 78v 4.5a 4.5 4.5, 0, 0, 0, 4.5 4.5h 4.5v -4.5a 4.5 4.5, 0, 0, 0, -4.5 -4.5" transform="rotate(90,118.5,82.5)"/><rect x="114" y="105" width="9" height="9" transform="rotate(0,118.5,109.5)"/><rect x="114" y="114" width="9" height="9" transform="rotate(0,118.5,118.5)"/><path d="M 114 159v 9h 9v -4.5a 4.5 4.5, 0, 0, 0, -4.5 -4.5" transform="rotate(-90,118.5,163.5)"/><path d="M 114 168v 9h 9v -4.5a 4.5 4.5, 0, 0, 0, -4.5 -4.5" transform="rotate(90,118.5,172.5)"/><path d="M 114 186v 9h 9v -4.5a 4.5 4.5, 0, 0, 0, -4.5 -4.5" transform="rotate(-90,118.5,190.5)"/><rect x="114" y="195" width="9" height="9" transform="rotate(0,118.5,199.5)"/><rect x="114" y="204" width="9" height="9" transform="rotate(0,118.5,208.5)"/><path d="M 114 231v 4.5a 4.5 4.5, 0, 0, 0, 4.5 4.5h 4.5v -4.5a 4.5 4.5, 0, 0, 0, -4.5 -4.5" transform="rotate(90,118.5,235.5)"/><path d="M 114 249v 9h 9v -4.5a 4.5 4.5, 0, 0, 0, -4.5 -4.5" transform="rotate(-90,118.5,253.5)"/><path d="M 114 258v 9h 9v -4.5a 4.5 4.5, 0, 0, 0, -4.5 -4.5" transform="rotate(90,118.5,262.5)"/><path d="M 114 294v 9h 9v -4.5a 4.5 4.5, 0, 0, 0, -4.5 -4.5" transform="rotate(-90,118.5,298.5)"/><rect x="114" y="303" width="9" height="9" transform="rotate(0,118.5,307.5)"/><rect x="114" y="312" width="9" height="9" transform="rotate(0,118.5,316.5)"/><rect x="114" y="321" width="9" height="9" transform="rotate(0,118.5,325.5)"/><path d="M 114 330v 9h 9v -4.5a 4.5 4.5, 0, 0, 0, -4.5 -4.5" transform="rotate(90,118.5,334.5)"/><path d="M 114 348v 9h 9v -4.5a 4.5 4.5, 0, 0, 0, -4.5 -4.5" transform="rotate(-90,118.5,352.5)"/><path d="M 114 366v 9h 9v -4.5a 4.5 4.5, 0, 0, 0, -4.5 -4.5" transform="rotate(90,118.5,370.5)"/><rect x="123" y="15" width="9" height="9" transform="rotate(0,127.5,19.5)"/><path d="M 123 24v 9h 9v -4.5a 4.5 4.5, 0, 0, 0, -4.5 -4.5" transform="rotate(90,127.5,28.5)"/><rect x="123" y="42" width="9" height="9" transform="rotate(0,127.5,46.5)"/><path d="M 123 60v 9h 9v -4.5a 4.5 4.5, 0, 0, 0, -4.5 -4.5" transform="rotate(-90,127.5,64.5)"/><path d="M 123 69v 9h 9v -4.5a 4.5 4.5, 0, 0, 0, -4.5 -4.5" transform="rotate(90,127.5,73.5)"/><path d="M 123 87v 9h 9v -4.5a 4.5 4.5, 0, 0, 0, -4.5 -4.5" transform="rotate(-90,127.5,91.5)"/><rect x="123" y="96" width="9" height="9" transform="rotate(0,127.5,100.5)"/><rect x="123" y="105" width="9" height="9" transform="rotate(0,127.5,109.5)"/><path d="M 123 114v 9h 9v -4.5a 4.5 4.5, 0, 0, 0, -4.5 -4.5" transform="rotate(90,127.5,118.5)"/><path d="M 123 132v 4.5a 4.5 4.5, 0, 0, 0, 4.5 4.5h 4.5v -4.5a 4.5 4.5, 0, 0, 0, -4.5 -4.5" transform="rotate(90,127.5,136.5)"/><rect x="123" y="159" width="9" height="9" transform="rotate(0,127.5,163.5)"/><path d="M 123 177v 9h 9v -4.5a 4.5 4.5, 0, 0, 0, -4.5 -4.5" transform="rotate(-90,127.5,181.5)"/><rect x="123" y="186" width="9" height="9" transform="rotate(0,127.5,190.5)"/><rect x="123" y="204" width="9" height="9" transform="rotate(0,127.5,208.5)"/><rect x="123" y="213" width="9" height="9" transform="rotate(0,127.5,217.5)"/><rect x="123" y="222" width="9" height="9" transform="rotate(0,127.5,226.5)"/><path d="M 123 240v 9h 9v -4.5a 4.5 4.5, 0, 0, 0, -4.5 -4.5" transform="rotate(-90,127.5,244.5)"/><path d="M 123 276v 4.5a 4.5 4.5, 0, 0, 0, 4.5 4.5h 4.5v -4.5a 4.5 4.5, 0, 0, 0, -4.5 -4.5" transform="rotate(90,127.5,280.5)"/><rect x="123" y="294" width="9" height="9" transform="rotate(0,127.5,298.5)"/><path d="M 123 303v 9h 9v -4.5a 4.5 4.5, 0, 0, 0, -4.5 -4.5" transform="rotate(90,127.5,307.5)"/><path d="M 123 321v 9h 9v -4.5a 4.5 4.5, 0, 0, 0, -4.5 -4.5" transform="rotate(90,127.5,325.5)"/><rect x="123" y="348" width="9" height="9" transform="rotate(0,127.5,352.5)"/><path d="M 123 357v 9h 9v -4.5a 4.5 4.5, 0, 0, 0, -4.5 -4.5" transform="rotate(90,127.5,361.5)"/><rect x="132" y="42" width="9" height="9" transform="rotate(0,136.5,46.5)"/><rect x="132" y="51" width="9" height="9" transform="rotate(0,136.5,55.5)"/><path d="M 132 78v 4.5a 4.5 4.5, 0, 0, 0, 4.5 4.5h 4.5v -4.5a 4.5 4.5, 0, 0, 0, -4.5 -4.5" transform="rotate(90,136.5,82.5)"/><rect x="132" y="96" width="9" height="9" transform="rotate(0,136.5,100.5)"/><path d="M 132 150v 9h 9v -4.5a 4.5 4.5, 0, 0, 0, -4.5 -4.5" transform="rotate(-90,136.5,154.5)"/><rect x="132" y="159" width="9" height="9" transform="rotate(0,136.5,163.5)"/><path d="M 132 186v 9h 9v -4.5a 4.5 4.5, 0, 0, 0, -4.5 -4.5" transform="rotate(90,136.5,190.5)"/><rect x="132" y="222" width="9" height="9" transform="rotate(0,136.5,226.5)"/><rect x="132" y="231" width="9" height="9" transform="rotate(0,136.5,235.5)"/><path d="M 132 240v 9h 9v -4.5a 4.5 4.5, 0, 0, 0, -4.5 -4.5" transform="rotate(90,136.5,244.5)"/><path d="M 132 258v 9h 9v -4.5a 4.5 4.5, 0, 0, 0, -4.5 -4.5" transform="rotate(-90,136.5,262.5)"/><path d="M 132 267v 9h 9v -4.5a 4.5 4.5, 0, 0, 0, -4.5 -4.5" transform="rotate(90,136.5,271.5)"/><path d="M 132 285v 4.5a 4.5 4.5, 0, 0, 0, 4.5 4.5h 4.5v -4.5a 4.5 4.5, 0, 0, 0, -4.5 -4.5" transform="rotate(90,136.5,289.5)"/><path d="M 132 312v 9h 9v -4.5a 4.5 4.5, 0, 0, 0, -4.5 -4.5" transform="rotate(-90,136.5,316.5)"/><path d="M 132 330v 9h 9v -4.5a 4.5 4.5, 0, 0, 0, -4.5 -4.5" transform="rotate(-90,136.5,334.5)"/><rect x="132" y="339" width="9" height="9" transform="rotate(0,136.5,343.5)"/><path d="M 132 348v 9h 9v -4.5a 4.5 4.5, 0, 0, 0, -4.5 -4.5" transform="rotate(90,136.5,352.5)"/><path d="M 132 375v 4.5a 4.5 4.5, 0, 0, 0, 4.5 4.5h 4.5v -4.5a 4.5 4.5, 0, 0, 0, -4.5 -4.5" transform="rotate(90,136.5,379.5)"/><path d="M 141 33v 4.5a 4.5 4.5, 0, 0, 0, 4.5 4.5h 4.5v -4.5a 4.5 4.5, 0, 0, 0, -4.5 -4.5" transform="rotate(90,145.5,37.5)"/><rect x="141" y="51" width="9" height="9" transform="rotate(0,145.5,55.5)"/><rect x="141" y="60" width="9" height="9" transform="rotate(0,145.5,64.5)"/><path d="M 141 69v 9h 9v -4.5a 4.5 4.5, 0, 0, 0, -4.5 -4.5" transform="rotate(90,145.5,73.5)"/><path d="M 141 87v 9h 9v -4.5a 4.5 4.5, 0, 0, 0, -4.5 -4.5" transform="rotate(-90,145.5,91.5)"/><rect x="141" y="96" width="9" height="9" transform="rotate(0,145.5,100.5)"/><path d="M 141 114v 9h 9v -4.5a 4.5 4.5, 0, 0, 0, -4.5 -4.5" transform="rotate(-90,145.5,118.5)"/><rect x="141" y="123" width="9" height="9" transform="rotate(0,145.5,127.5)"/><path d="M 141 132v 9h 9v -4.5a 4.5 4.5, 0, 0, 0, -4.5 -4.5" transform="rotate(90,145.5,136.5)"/><rect x="141" y="159" width="9" height="9" transform="rotate(0,145.5,163.5)"/><rect x="141" y="168" width="9" height="9" transform="rotate(0,145.5,172.5)"/><rect x="141" y="222" width="9" height="9" transform="rotate(0,145.5,226.5)"/><path d="M 141 303v 9h 9v -4.5a 4.5 4.5, 0, 0, 0, -4.5 -4.5" transform="rotate(-90,145.5,307.5)"/><path d="M 141 312v 9h 9v -4.5a 4.5 4.5, 0, 0, 0, -4.5 -4.5" transform="rotate(90,145.5,316.5)"/><path d="M 150 15v 4.5a 4.5 4.5, 0, 0, 0, 4.5 4.5h 4.5v -4.5a 4.5 4.5, 0, 0, 0, -4.5 -4.5" transform="rotate(90,154.5,19.5)"/><path d="M 150 60v 9h 9v -4.5a 4.5 4.5, 0, 0, 0, -4.5 -4.5" transform="rotate(90,154.5,64.5)"/><rect x="150" y="87" width="9" height="9" transform="rotate(0,154.5,91.5)"/><rect x="150" y="96" width="9" height="9" transform="rotate(0,154.5,100.5)"/><rect x="150" y="105" width="9" height="9" transform="rotate(0,154.5,109.5)"/><path d="M 150 114v 9h 9v -4.5a 4.5 4.5, 0, 0, 0, -4.5 -4.5" transform="rotate(90,154.5,118.5)"/><path d="M 150 141v 9h 9v -4.5a 4.5 4.5, 0, 0, 0, -4.5 -4.5" transform="rotate(-90,154.5,145.5)"/><rect x="150" y="150" width="9" height="9" transform="rotate(0,154.5,154.5)"/><rect x="150" y="159" width="9" height="9" transform="rotate(0,154.5,163.5)"/><path d="M 150 168v 9h 9v -4.5a 4.5 4.5, 0, 0, 0, -4.5 -4.5" transform="rotate(90,154.5,172.5)"/><path d="M 150 186v 9h 9v -4.5a 4.5 4.5, 0, 0, 0, -4.5 -4.5" transform="rotate(-90,154.5,190.5)"/><rect x="150" y="195" width="9" height="9" transform="rotate(0,154.5,199.5)"/><rect x="150" y="204" width="9" height="9" transform="rotate(0,154.5,208.5)"/><path d="M 150 222v 9h 9v -4.5a 4.5 4.5, 0, 0, 0, -4.5 -4.5" transform="rotate(90,154.5,226.5)"/><path d="M 150 240v 9h 9v -4.5a 4.5 4.5, 0, 0, 0, -4.5 -4.5" transform="rotate(-90,154.5,244.5)"/><rect x="150" y="249" width="9" height="9" transform="rotate(0,154.5,253.5)"/><path d="M 150 267v 4.5a 4.5 4.5, 0, 0, 0, 4.5 4.5h 4.5v -4.5a 4.5 4.5, 0, 0, 0, -4.5 -4.5" transform="rotate(90,154.5,271.5)"/><path d="M 150 285v 4.5a 4.5 4.5, 0, 0, 0, 4.5 4.5h 4.5v -4.5a 4.5 4.5, 0, 0, 0, -4.5 -4.5" transform="rotate(90,154.5,289.5)"/><path d="M 150 321v 4.5a 4.5 4.5, 0, 0, 0, 4.5 4.5h 4.5v -4.5a 4.5 4.5, 0, 0, 0, -4.5 -4.5" transform="rotate(90,154.5,325.5)"/><path d="M 150 339v 9h 9v -4.5a 4.5 4.5, 0, 0, 0, -4.5 -4.5" transform="rotate(-90,154.5,343.5)"/><path d="M 150 348v 9h 9v -4.5a 4.5 4.5, 0, 0, 0, -4.5 -4.5" transform="rotate(90,154.5,352.5)"/><path d="M 159 24v 4.5a 4.5 4.5, 0, 0, 0, 4.5 4.5h 4.5v -4.5a 4.5 4.5, 0, 0, 0, -4.5 -4.5" transform="rotate(90,163.5,28.5)"/><path d="M 159 42v 9h 9v -4.5a 4.5 4.5, 0, 0, 0, -4.5 -4.5" transform="rotate(-90,163.5,46.5)"/><rect x="159" y="51" width="9" height="9" transform="rotate(0,163.5,55.5)"/><path d="M 159 69v 4.5a 4.5 4.5, 0, 0, 0, 4.5 4.5h 4.5v -4.5a 4.5 4.5, 0, 0, 0, -4.5 -4.5" transform="rotate(90,163.5,73.5)"/><rect x="159" y="96" width="9" height="9" transform="rotate(0,163.5,100.5)"/><rect x="159" y="105" width="9" height="9" transform="rotate(0,163.5,109.5)"/><path d="M 159 132v 9h 9v -4.5a 4.5 4.5, 0, 0, 0, -4.5 -4.5" transform="rotate(-90,163.5,136.5)"/><path d="M 159 141v 9h 9v -4.5a 4.5 4.5, 0, 0, 0, -4.5 -4.5" transform="rotate(90,163.5,145.5)"/><path d="M 159 186v 9h 9v -4.5a 4.5 4.5, 0, 0, 0, -4.5 -4.5" transform="rotate(90,163.5,190.5)"/><path d="M 159 204v 9h 9v -4.5a 4.5 4.5, 0, 0, 0, -4.5 -4.5" transform="rotate(90,163.5,208.5)"/><path d="M 159 231v 9h 9v -4.5a 4.5 4.5, 0, 0, 0, -4.5 -4.5" transform="rotate(-90,163.5,235.5)"/><rect x="159" y="240" width="9" height="9" transform="rotate(0,163.5,244.5)"/><rect x="159" y="249" width="9" height="9" transform="rotate(0,163.5,253.5)"/><path d="M 159 276v 4.5a 4.5 4.5, 0, 0, 0, 4.5 4.5h 4.5v -4.5a 4.5 4.5, 0, 0, 0, -4.5 -4.5" transform="rotate(90,163.5,280.5)"/><path d="M 159 303v 9h 9v -4.5a 4.5 4.5, 0, 0, 0, -4.5 -4.5" transform="rotate(-90,163.5,307.5)"/><path d="M 159 312v 9h 9v -4.5a 4.5 4.5, 0, 0, 0, -4.5 -4.5" transform="rotate(90,163.5,316.5)"/><path d="M 159 330v 9h 9v -4.5a 4.5 4.5, 0, 0, 0, -4.5 -4.5" transform="rotate(-90,163.5,334.5)"/><path d="M 159 357v 4.5a 4.5 4.5, 0, 0, 0, 4.5 4.5h 4.5v -4.5a 4.5 4.5, 0, 0, 0, -4.5 -4.5" transform="rotate(90,163.5,361.5)"/><rect x="168" y="42" width="9" height="9" transform="rotate(0,172.5,46.5)"/><rect x="168" y="51" width="9" height="9" transform="rotate(0,172.5,55.5)"/><path d="M 168 60v 9h 9v -4.5a 4.5 4.5, 0, 0, 0, -4.5 -4.5" transform="rotate(90,172.5,64.5)"/><path d="M 168 78v 9h 9v -4.5a 4.5 4.5, 0, 0, 0, -4.5 -4.5" transform="rotate(-90,172.5,82.5)"/><rect x="168" y="96" width="9" height="9" transform="rotate(0,172.5,100.5)"/><rect x="168" y="105" width="9" height="9" transform="rotate(0,172.5,109.5)"/><path d="M 168 123v 4.5a 4.5 4.5, 0, 0, 0, 4.5 4.5h 4.5v -4.5a 4.5 4.5, 0, 0, 0, -4.5 -4.5" transform="rotate(90,172.5,127.5)"/><path d="M 168 150v 4.5a 4.5 4.5, 0, 0, 0, 4.5 4.5h 4.5v -4.5a 4.5 4.5, 0, 0, 0, -4.5 -4.5" transform="rotate(90,172.5,154.5)"/><path d="M 168 168v 9h 9v -4.5a 4.5 4.5, 0, 0, 0, -4.5 -4.5" transform="rotate(-90,172.5,172.5)"/><path d="M 168 177v 9h 9v -4.5a 4.5 4.5, 0, 0, 0, -4.5 -4.5" transform="rotate(90,172.5,181.5)"/><path d="M 168 222v 9h 9v -4.5a 4.5 4.5, 0, 0, 0, -4.5 -4.5" transform="rotate(-90,172.5,226.5)"/><rect x="168" y="240" width="9" height="9" transform="rotate(0,172.5,244.5)"/><rect x="168" y="249" width="9" height="9" transform="rotate(0,172.5,253.5)"/><path d="M 168 267v 4.5a 4.5 4.5, 0, 0, 0, 4.5 4.5h 4.5v -4.5a 4.5 4.5, 0, 0, 0, -4.5 -4.5" transform="rotate(90,172.5,271.5)"/><path d="M 168 285v 9h 9v -4.5a 4.5 4.5, 0, 0, 0, -4.5 -4.5" transform="rotate(-90,172.5,289.5)"/><rect x="168" y="294" width="9" height="9" transform="rotate(0,172.5,298.5)"/><rect x="168" y="303" width="9" height="9" transform="rotate(0,172.5,307.5)"/><path d="M 168 321v 9h 9v -4.5a 4.5 4.5, 0, 0, 0, -4.5 -4.5" transform="rotate(-90,172.5,325.5)"/><rect x="168" y="330" width="9" height="9" transform="rotate(0,172.5,334.5)"/><rect x="168" y="339" width="9" height="9" transform="rotate(0,172.5,343.5)"/><path d="M 168 348v 9h 9v -4.5a 4.5 4.5, 0, 0, 0, -4.5 -4.5" transform="rotate(90,172.5,352.5)"/><path d="M 168 375v 4.5a 4.5 4.5, 0, 0, 0, 4.5 4.5h 4.5v -4.5a 4.5 4.5, 0, 0, 0, -4.5 -4.5" transform="rotate(90,172.5,379.5)"/><path d="M 177 24v 9h 9v -4.5a 4.5 4.5, 0, 0, 0, -4.5 -4.5" transform="rotate(-90,181.5,28.5)"/><rect x="177" y="33" width="9" height="9" transform="rotate(0,181.5,37.5)"/><path d="M 177 69v 9h 9v -4.5a 4.5 4.5, 0, 0, 0, -4.5 -4.5" transform="rotate(-90,181.5,73.5)"/><rect x="177" y="78" width="9" height="9" transform="rotate(0,181.5,82.5)"/><rect x="177" y="87" width="9" height="9" transform="rotate(0,181.5,91.5)"/><rect x="177" y="105" width="9" height="9" transform="rotate(0,181.5,109.5)"/><path d="M 177 114v 9h 9v -4.5a 4.5 4.5, 0, 0, 0, -4.5 -4.5" transform="rotate(90,181.5,118.5)"/><path d="M 177 132v 4.5a 4.5 4.5, 0, 0, 0, 4.5 4.5h 4.5v -4.5a 4.5 4.5, 0, 0, 0, -4.5 -4.5" transform="rotate(90,181.5,136.5)"/><path d="M 177 168v 9h 9v -4.5a 4.5 4.5, 0, 0, 0, -4.5 -4.5" transform="rotate(90,181.5,172.5)"/><path d="M 177 195v 9h 9v -4.5a 4.5 4.5, 0, 0, 0, -4.5 -4.5" transform="rotate(-90,181.5,199.5)"/><rect x="177" y="204" width="9" height="9" transform="rotate(0,181.5,208.5)"/><rect x="177" y="222" width="9" height="9" transform="rotate(0,181.5,226.5)"/><rect x="177" y="249" width="9" height="9" transform="rotate(0,181.5,253.5)"/><path d="M 177 258v 9h 9v -4.5a 4.5 4.5, 0, 0, 0, -4.5 -4.5" transform="rotate(90,181.5,262.5)"/><path d="M 177 285v 9h 9v -4.5a 4.5 4.5, 0, 0, 0, -4.5 -4.5" transform="rotate(90,181.5,289.5)"/><rect x="177" y="303" width="9" height="9" transform="rotate(0,181.5,307.5)"/><path d="M 177 312v 9h 9v -4.5a 4.5 4.5, 0, 0, 0, -4.5 -4.5" transform="rotate(90,181.5,316.5)"/><rect x="177" y="339" width="9" height="9" transform="rotate(0,181.5,343.5)"/><path d="M 186 15v 9h 9v -4.5a 4.5 4.5, 0, 0, 0, -4.5 -4.5" transform="rotate(-90,190.5,19.5)"/><rect x="186" y="24" width="9" height="9" transform="rotate(0,190.5,28.5)"/><path d="M 186 33v 9h 9v -4.5a 4.5 4.5, 0, 0, 0, -4.5 -4.5" transform="rotate(90,190.5,37.5)"/><rect x="186" y="78" width="9" height="9" transform="rotate(0,190.5,82.5)"/><rect x="186" y="87" width="9" height="9" transform="rotate(0,190.5,91.5)"/><rect x="186" y="96" width="9" height="9" transform="rotate(0,190.5,100.5)"/><path d="M 186 105v 9h 9v -4.5a 4.5 4.5, 0, 0, 0, -4.5 -4.5" transform="rotate(90,190.5,109.5)"/><path d="M 186 177v 4.5a 4.5 4.5, 0, 0, 0, 4.5 4.5h 4.5v -4.5a 4.5 4.5, 0, 0, 0, -4.5 -4.5" transform="rotate(90,190.5,181.5)"/><rect x="186" y="204" width="9" height="9" transform="rotate(0,190.5,208.5)"/><path d="M 186 222v 9h 9v -4.5a 4.5 4.5, 0, 0, 0, -4.5 -4.5" transform="rotate(90,190.5,226.5)"/><path d="M 186 294v 9h 9v -4.5a 4.5 4.5, 0, 0, 0, -4.5 -4.5" transform="rotate(-90,190.5,298.5)"/><path d="M 186 303v 9h 9v -4.5a 4.5 4.5, 0, 0, 0, -4.5 -4.5" transform="rotate(90,190.5,307.5)"/><rect x="186" y="339" width="9" height="9" transform="rotate(0,190.5,343.5)"/><path d="M 186 348v 9h 9v -4.5a 4.5 4.5, 0, 0, 0, -4.5 -4.5" transform="rotate(90,190.5,352.5)"/><path d="M 186 375v 4.5a 4.5 4.5, 0, 0, 0, 4.5 4.5h 4.5v -4.5a 4.5 4.5, 0, 0, 0, -4.5 -4.5" transform="rotate(90,190.5,379.5)"/><path d="M 195 15v 9h 9v -4.5a 4.5 4.5, 0, 0, 0, -4.5 -4.5" transform="rotate(90,199.5,19.5)"/><path d="M 195 69v 9h 9v -4.5a 4.5 4.5, 0, 0, 0, -4.5 -4.5" transform="rotate(-90,199.5,73.5)"/><path d="M 195 78v 9h 9v -4.5a 4.5 4.5, 0, 0, 0, -4.5 -4.5" transform="rotate(90,199.5,82.5)"/><rect x="195" y="96" width="9" height="9" transform="rotate(0,199.5,100.5)"/><path d="M 195 114v 9h 9v -4.5a 4.5 4.5, 0, 0, 0, -4.5 -4.5" transform="rotate(-90,199.5,118.5)"/><path d="M 195 141v 9h 9v -4.5a 4.5 4.5, 0, 0, 0, -4.5 -4.5" transform="rotate(-90,199.5,145.5)"/><rect x="195" y="150" width="9" height="9" transform="rotate(0,199.5,154.5)"/><rect x="195" y="204" width="9" height="9" transform="rotate(0,199.5,208.5)"/><rect x="195" y="213" width="9" height="9" transform="rotate(0,199.5,217.5)"/><path d="M 195 231v 9h 9v -4.5a 4.5 4.5, 0, 0, 0, -4.5 -4.5" transform="rotate(-90,199.5,235.5)"/><path d="M 195 240v 9h 9v -4.5a 4.5 4.5, 0, 0, 0, -4.5 -4.5" transform="rotate(90,199.5,244.5)"/><path d="M 195 258v 4.5a 4.5 4.5, 0, 0, 0, 4.5 4.5h 4.5v -4.5a 4.5 4.5, 0, 0, 0, -4.5 -4.5" transform="rotate(90,199.5,262.5)"/><path d="M 195 285v 9h 9v -4.5a 4.5 4.5, 0, 0, 0, -4.5 -4.5" transform="rotate(-90,199.5,289.5)"/><rect x="195" y="294" width="9" height="9" transform="rotate(0,199.5,298.5)"/><path d="M 195 330v 9h 9v -4.5a 4.5 4.5, 0, 0, 0, -4.5 -4.5" transform="rotate(-90,199.5,334.5)"/><rect x="195" y="339" width="9" height="9" transform="rotate(0,199.5,343.5)"/><path d="M 195 357v 9h 9v -4.5a 4.5 4.5, 0, 0, 0, -4.5 -4.5" transform="rotate(-90,199.5,361.5)"/><rect x="195" y="366" width="9" height="9" transform="rotate(0,199.5,370.5)"/><path d="M 204 24v 9h 9v -4.5a 4.5 4.5, 0, 0, 0, -4.5 -4.5" transform="rotate(-90,208.5,28.5)"/><path d="M 204 51v 4.5a 4.5 4.5, 0, 0, 0, 4.5 4.5h 4.5v -4.5a 4.5 4.5, 0, 0, 0, -4.5 -4.5" transform="rotate(90,208.5,55.5)"/><rect x="204" y="96" width="9" height="9" transform="rotate(0,208.5,100.5)"/><rect x="204" y="105" width="9" height="9" transform="rotate(0,208.5,109.5)"/><rect x="204" y="114" width="9" height="9" transform="rotate(0,208.5,118.5)"/><rect x="204" y="123" width="9" height="9" transform="rotate(0,208.5,127.5)"/><rect x="204" y="132" width="9" height="9" transform="rotate(0,208.5,136.5)"/><rect x="204" y="141" width="9" height="9" transform="rotate(0,208.5,145.5)"/><rect x="204" y="150" width="9" height="9" transform="rotate(0,208.5,154.5)"/><rect x="204" y="159" width="9" height="9" transform="rotate(0,208.5,163.5)"/><rect x="204" y="168" width="9" height="9" transform="rotate(0,208.5,172.5)"/><path d="M 204 177v 9h 9v -4.5a 4.5 4.5, 0, 0, 0, -4.5 -4.5" transform="rotate(90,208.5,181.5)"/><path d="M 204 213v 9h 9v -4.5a 4.5 4.5, 0, 0, 0, -4.5 -4.5" transform="rotate(90,208.5,217.5)"/><path d="M 204 249v 4.5a 4.5 4.5, 0, 0, 0, 4.5 4.5h 4.5v -4.5a 4.5 4.5, 0, 0, 0, -4.5 -4.5" transform="rotate(90,208.5,253.5)"/><path d="M 204 267v 9h 9v -4.5a 4.5 4.5, 0, 0, 0, -4.5 -4.5" transform="rotate(-90,208.5,271.5)"/><rect x="204" y="294" width="9" height="9" transform="rotate(0,208.5,298.5)"/><rect x="204" y="303" width="9" height="9" transform="rotate(0,208.5,307.5)"/><rect x="204" y="312" width="9" height="9" transform="rotate(0,208.5,316.5)"/><path d="M 204 321v 9h 9v -4.5a 4.5 4.5, 0, 0, 0, -4.5 -4.5" transform="rotate(90,208.5,325.5)"/><rect x="204" y="339" width="9" height="9" transform="rotate(0,208.5,343.5)"/><rect x="204" y="348" width="9" height="9" transform="rotate(0,208.5,352.5)"/><rect x="204" y="357" width="9" height="9" transform="rotate(0,208.5,361.5)"/><rect x="204" y="366" width="9" height="9" transform="rotate(0,208.5,370.5)"/><path d="M 204 375v 9h 9v -4.5a 4.5 4.5, 0, 0, 0, -4.5 -4.5" transform="rotate(90,208.5,379.5)"/><path d="M 213 24v 9h 9v -4.5a 4.5 4.5, 0, 0, 0, -4.5 -4.5" transform="rotate(90,217.5,28.5)"/><path d="M 213 42v 4.5a 4.5 4.5, 0, 0, 0, 4.5 4.5h 4.5v -4.5a 4.5 4.5, 0, 0, 0, -4.5 -4.5" transform="rotate(90,217.5,46.5)"/><path d="M 213 69v 9h 9v -4.5a 4.5 4.5, 0, 0, 0, -4.5 -4.5" transform="rotate(-90,217.5,73.5)"/><rect x="213" y="78" width="9" height="9" transform="rotate(0,217.5,82.5)"/><path d="M 213 87v 9h 9v -4.5a 4.5 4.5, 0, 0, 0, -4.5 -4.5" transform="rotate(90,217.5,91.5)"/><rect x="213" y="105" width="9" height="9" transform="rotate(0,217.5,109.5)"/><rect x="213" y="114" width="9" height="9" transform="rotate(0,217.5,118.5)"/><rect x="213" y="123" width="9" height="9" transform="rotate(0,217.5,127.5)"/><path d="M 213 168v 9h 9v -4.5a 4.5 4.5, 0, 0, 0, -4.5 -4.5" transform="rotate(90,217.5,172.5)"/><path d="M 213 222v 4.5a 4.5 4.5, 0, 0, 0, 4.5 4.5h 4.5v -4.5a 4.5 4.5, 0, 0, 0, -4.5 -4.5" transform="rotate(90,217.5,226.5)"/><path d="M 213 240v 9h 9v -4.5a 4.5 4.5, 0, 0, 0, -4.5 -4.5" transform="rotate(-90,217.5,244.5)"/><path d="M 213 258v 9h 9v -4.5a 4.5 4.5, 0, 0, 0, -4.5 -4.5" transform="rotate(-90,217.5,262.5)"/><rect x="213" y="267" width="9" height="9" transform="rotate(0,217.5,271.5)"/><path d="M 213 276v 9h 9v -4.5a 4.5 4.5, 0, 0, 0, -4.5 -4.5" transform="rotate(90,217.5,280.5)"/><path d="M 213 330v 9h 9v -4.5a 4.5 4.5, 0, 0, 0, -4.5 -4.5" transform="rotate(-90,217.5,334.5)"/><rect x="213" y="339" width="9" height="9" transform="rotate(0,217.5,343.5)"/><rect x="213" y="348" width="9" height="9" transform="rotate(0,217.5,352.5)"/><path d="M 213 357v 9h 9v -4.5a 4.5 4.5, 0, 0, 0, -4.5 -4.5" transform="rotate(90,217.5,361.5)"/><path d="M 222 15v 9h 9v -4.5a 4.5 4.5, 0, 0, 0, -4.5 -4.5" transform="rotate(-90,226.5,19.5)"/><path d="M 222 33v 4.5a 4.5 4.5, 0, 0, 0, 4.5 4.5h 4.5v -4.5a 4.5 4.5, 0, 0, 0, -4.5 -4.5" transform="rotate(90,226.5,37.5)"/><rect x="222" y="123" width="9" height="9" transform="rotate(0,226.5,127.5)"/><rect x="222" y="132" width="9" height="9" transform="rotate(0,226.5,136.5)"/><path d="M 222 141v 9h 9v -4.5a 4.5 4.5, 0, 0, 0, -4.5 -4.5" transform="rotate(90,226.5,145.5)"/><path d="M 222 177v 9h 9v -4.5a 4.5 4.5, 0, 0, 0, -4.5 -4.5" transform="rotate(-90,226.5,181.5)"/><rect x="222" y="186" width="9" height="9" transform="rotate(0,226.5,190.5)"/><rect x="222" y="195" width="9" height="9" transform="rotate(0,226.5,199.5)"/><rect x="222" y="204" width="9" height="9" transform="rotate(0,226.5,208.5)"/><rect x="222" y="213" width="9" height="9" transform="rotate(0,226.5,217.5)"/><rect x="222" y="240" width="9" height="9" transform="rotate(0,226.5,244.5)"/><path d="M 222 294v 9h 9v -4.5a 4.5 4.5, 0, 0, 0, -4.5 -4.5" transform="rotate(-90,226.5,298.5)"/><path d="M 222 303v 9h 9v -4.5a 4.5 4.5, 0, 0, 0, -4.5 -4.5" transform="rotate(90,226.5,307.5)"/><path d="M 222 321v 4.5a 4.5 4.5, 0, 0, 0, 4.5 4.5h 4.5v -4.5a 4.5 4.5, 0, 0, 0, -4.5 -4.5" transform="rotate(90,226.5,325.5)"/><path d="M 222 339v 9h 9v -4.5a 4.5 4.5, 0, 0, 0, -4.5 -4.5" transform="rotate(90,226.5,343.5)"/><path d="M 222 366v 9h 9v -4.5a 4.5 4.5, 0, 0, 0, -4.5 -4.5" transform="rotate(-90,226.5,370.5)"/><rect x="222" y="375" width="9" height="9" transform="rotate(0,226.5,379.5)"/><rect x="231" y="15" width="9" height="9" transform="rotate(0,235.5,19.5)"/><path d="M 231 42v 9h 9v -4.5a 4.5 4.5, 0, 0, 0, -4.5 -4.5" transform="rotate(-90,235.5,46.5)"/><path d="M 231 69v 4.5a 4.5 4.5, 0, 0, 0, 4.5 4.5h 4.5v -4.5a 4.5 4.5, 0, 0, 0, -4.5 -4.5" transform="rotate(90,235.5,73.5)"/><path d="M 231 87v 4.5a 4.5 4.5, 0, 0, 0, 4.5 4.5h 4.5v -4.5a 4.5 4.5, 0, 0, 0, -4.5 -4.5" transform="rotate(90,235.5,91.5)"/><rect x="231" y="132" width="9" height="9" transform="rotate(0,235.5,136.5)"/><path d="M 231 159v 4.5a 4.5 4.5, 0, 0, 0, 4.5 4.5h 4.5v -4.5a 4.5 4.5, 0, 0, 0, -4.5 -4.5" transform="rotate(90,235.5,163.5)"/><rect x="231" y="177" width="9" height="9" transform="rotate(0,235.5,181.5)"/><rect x="231" y="186" width="9" height="9" transform="rotate(0,235.5,190.5)"/><rect x="231" y="195" width="9" height="9" transform="rotate(0,235.5,199.5)"/><rect x="231" y="204" width="9" height="9" transform="rotate(0,235.5,208.5)"/><rect x="231" y="213" width="9" height="9" transform="rotate(0,235.5,217.5)"/><rect x="231" y="222" width="9" height="9" transform="rotate(0,235.5,226.5)"/><rect x="231" y="240" width="9" height="9" transform="rotate(0,235.5,244.5)"/><path d="M 231 258v 4.5a 4.5 4.5, 0, 0, 0, 4.5 4.5h 4.5v -4.5a 4.5 4.5, 0, 0, 0, -4.5 -4.5" transform="rotate(90,235.5,262.5)"/><path d="M 231 276v 9h 9v -4.5a 4.5 4.5, 0, 0, 0, -4.5 -4.5" transform="rotate(-90,235.5,280.5)"/><rect x="231" y="294" width="9" height="9" transform="rotate(0,235.5,298.5)"/><rect x="231" y="375" width="9" height="9" transform="rotate(0,235.5,379.5)"/><rect x="240" y="15" width="9" height="9" transform="rotate(0,244.5,19.5)"/><path d="M 240 42v 9h 9v -4.5a 4.5 4.5, 0, 0, 0, -4.5 -4.5" transform="rotate(90,244.5,46.5)"/><path d="M 240 60v 4.5a 4.5 4.5, 0, 0, 0, 4.5 4.5h 4.5v -4.5a 4.5 4.5, 0, 0, 0, -4.5 -4.5" transform="rotate(90,244.5,64.5)"/><path d="M 240 78v 9h 9v -4.5a 4.5 4.5, 0, 0, 0, -4.5 -4.5" transform="rotate(-90,244.5,82.5)"/><path d="M 240 96v 9h 9v -4.5a 4.5 4.5, 0, 0, 0, -4.5 -4.5" transform="rotate(-90,244.5,100.5)"/><path d="M 240 105v 9h 9v -4.5a 4.5 4.5, 0, 0, 0, -4.5 -4.5" transform="rotate(90,244.5,109.5)"/><rect x="240" y="132" width="9" height="9" transform="rotate(0,244.5,136.5)"/><path d="M 240 168v 4.5a 4.5 4.5, 0, 0, 0, 4.5 4.5h 4.5v -4.5a 4.5 4.5, 0, 0, 0, -4.5 -4.5" transform="rotate(90,244.5,172.5)"/><rect x="240" y="195" width="9" height="9" transform="rotate(0,244.5,199.5)"/><rect x="240" y="204" width="9" height="9" transform="rotate(0,244.5,208.5)"/><rect x="240" y="213" width="9" height="9" transform="rotate(0,244.5,217.5)"/><rect x="240" y="222" width="9" height="9" transform="rotate(0,244.5,226.5)"/><rect x="240" y="231" width="9" height="9" transform="rotate(0,244.5,235.5)"/><rect x="240" y="240" width="9" height="9" transform="rotate(0,244.5,244.5)"/><path d="M 240 267v 9h 9v -4.5a 4.5 4.5, 0, 0, 0, -4.5 -4.5" transform="rotate(-90,244.5,271.5)"/><path d="M 240 276v 9h 9v -4.5a 4.5 4.5, 0, 0, 0, -4.5 -4.5" transform="rotate(90,244.5,280.5)"/><path d="M 240 294v 9h 9v -4.5a 4.5 4.5, 0, 0, 0, -4.5 -4.5" transform="rotate(90,244.5,298.5)"/><path d="M 240 312v 9h 9v -4.5a 4.5 4.5, 0, 0, 0, -4.5 -4.5" transform="rotate(-90,244.5,316.5)"/><rect x="240" y="321" width="9" height="9" transform="rotate(0,244.5,325.5)"/><rect x="240" y="330" width="9" height="9" transform="rotate(0,244.5,334.5)"/><rect x="240" y="339" width="9" height="9" transform="rotate(0,244.5,343.5)"/><path d="M 240 348v 9h 9v -4.5a 4.5 4.5, 0, 0, 0, -4.5 -4.5" transform="rotate(90,244.5,352.5)"/><path d="M 240 366v 9h 9v -4.5a 4.5 4.5, 0, 0, 0, -4.5 -4.5" transform="rotate(-90,244.5,370.5)"/><path d="M 240 375v 9h 9v -4.5a 4.5 4.5, 0, 0, 0, -4.5 -4.5" transform="rotate(90,244.5,379.5)"/><rect x="249" y="15" width="9" height="9" transform="rotate(0,253.5,19.5)"/><path d="M 249 69v 9h 9v -4.5a 4.5 4.5, 0, 0, 0, -4.5 -4.5" transform="rotate(-90,253.5,73.5)"/><rect x="249" y="78" width="9" height="9" transform="rotate(0,253.5,82.5)"/><path d="M 249 87v 9h 9v -4.5a 4.5 4.5, 0, 0, 0, -4.5 -4.5" transform="rotate(90,253.5,91.5)"/><path d="M 249 114v 9h 9v -4.5a 4.5 4.5, 0, 0, 0, -4.5 -4.5" transform="rotate(-90,253.5,118.5)"/><rect x="249" y="123" width="9" height="9" transform="rotate(0,253.5,127.5)"/><rect x="249" y="132" width="9" height="9" transform="rotate(0,253.5,136.5)"/><rect x="249" y="141" width="9" height="9" transform="rotate(0,253.5,145.5)"/><rect x="249" y="150" width="9" height="9" transform="rotate(0,253.5,154.5)"/><path d="M 249 159v 9h 9v -4.5a 4.5 4.5, 0, 0, 0, -4.5 -4.5" transform="rotate(90,253.5,163.5)"/><path d="M 249 177v 9h 9v -4.5a 4.5 4.5, 0, 0, 0, -4.5 -4.5" transform="rotate(-90,253.5,181.5)"/><path d="M 249 186v 9h 9v -4.5a 4.5 4.5, 0, 0, 0, -4.5 -4.5" transform="rotate(90,253.5,190.5)"/><rect x="249" y="240" width="9" height="9" transform="rotate(0,253.5,244.5)"/><rect x="249" y="249" width="9" height="9" transform="rotate(0,253.5,253.5)"/><path d="M 249 258v 9h 9v -4.5a 4.5 4.5, 0, 0, 0, -4.5 -4.5" transform="rotate(90,253.5,262.5)"/><path d="M 249 303v 9h 9v -4.5a 4.5 4.5, 0, 0, 0, -4.5 -4.5" transform="rotate(-90,253.5,307.5)"/><path d="M 249 312v 9h 9v -4.5a 4.5 4.5, 0, 0, 0, -4.5 -4.5" transform="rotate(90,253.5,316.5)"/><rect x="249" y="330" width="9" height="9" transform="rotate(0,253.5,334.5)"/><path d="M 249 339v 9h 9v -4.5a 4.5 4.5, 0, 0, 0, -4.5 -4.5" transform="rotate(90,253.5,343.5)"/><rect x="258" y="15" width="9" height="9" transform="rotate(0,262.5,19.5)"/><path d="M 258 96v 9h 9v -4.5a 4.5 4.5, 0, 0, 0, -4.5 -4.5" transform="rotate(-90,262.5,100.5)"/><rect x="258" y="114" width="9" height="9" transform="rotate(0,262.5,118.5)"/><rect x="258" y="132" width="9" height="9" transform="rotate(0,262.5,136.5)"/><path d="M 258 168v 9h 9v -4.5a 4.5 4.5, 0, 0, 0, -4.5 -4.5" transform="rotate(-90,262.5,172.5)"/><path d="M 258 204v 9h 9v -4.5a 4.5 4.5, 0, 0, 0, -4.5 -4.5" transform="rotate(-90,262.5,208.5)"/><path d="M 258 213v 9h 9v -4.5a 4.5 4.5, 0, 0, 0, -4.5 -4.5" transform="rotate(90,262.5,217.5)"/><path d="M 258 240v 9h 9v -4.5a 4.5 4.5, 0, 0, 0, -4.5 -4.5" transform="rotate(90,262.5,244.5)"/><path d="M 258 267v 9h 9v -4.5a 4.5 4.5, 0, 0, 0, -4.5 -4.5" transform="rotate(-90,262.5,271.5)"/><path d="M 258 294v 9h 9v -4.5a 4.5 4.5, 0, 0, 0, -4.5 -4.5" transform="rotate(-90,262.5,298.5)"/><path d="M 258 303v 9h 9v -4.5a 4.5 4.5, 0, 0, 0, -4.5 -4.5" transform="rotate(90,262.5,307.5)"/><path d="M 258 348v 9h 9v -4.5a 4.5 4.5, 0, 0, 0, -4.5 -4.5" transform="rotate(-90,262.5,352.5)"/><rect x="267" y="15" width="9" height="9" transform="rotate(0,271.5,19.5)"/><rect x="267" y="24" width="9" height="9" transform="rotate(0,271.5,28.5)"/><rect x="267" y="33" width="9" height="9" transform="rotate(0,271.5,37.5)"/><path d="M 267 60v 9h 9v -4.5a 4.5 4.5, 0, 0, 0, -4.5 -4.5" transform="rotate(-90,271.5,64.5)"/><rect x="267" y="69" width="9" height="9" transform="rotate(0,271.5,73.5)"/><rect x="267" y="78" width="9" height="9" transform="rotate(0,271.5,82.5)"/><rect x="267" y="96" width="9" height="9" transform="rotate(0,271.5,100.5)"/><rect x="267" y="105" width="9" height="9" transform="rotate(0,271.5,109.5)"/><rect x="267" y="114" width="9" height="9" transform="rotate(0,271.5,118.5)"/><rect x="267" y="132" width="9" height="9" transform="rotate(0,271.5,136.5)"/><path d="M 267 168v 9h 9v -4.5a 4.5 4.5, 0, 0, 0, -4.5 -4.5" transform="rotate(90,271.5,172.5)"/><path d="M 267 186v 9h 9v -4.5a 4.5 4.5, 0, 0, 0, -4.5 -4.5" transform="rotate(-90,271.5,190.5)"/><path d="M 267 231v 4.5a 4.5 4.5, 0, 0, 0, 4.5 4.5h 4.5v -4.5a 4.5 4.5, 0, 0, 0, -4.5 -4.5" transform="rotate(90,271.5,235.5)"/><rect x="267" y="267" width="9" height="9" transform="rotate(0,271.5,271.5)"/><rect x="267" y="276" width="9" height="9" transform="rotate(0,271.5,280.5)"/><rect x="267" y="285" width="9" height="9" transform="rotate(0,271.5,289.5)"/><path d="M 267 294v 9h 9v -4.5a 4.5 4.5, 0, 0, 0, -4.5 -4.5" transform="rotate(90,271.5,298.5)"/><path d="M 267 312v 4.5a 4.5 4.5, 0, 0, 0, 4.5 4.5h 4.5v -4.5a 4.5 4.5, 0, 0, 0, -4.5 -4.5" transform="rotate(90,271.5,316.5)"/><path d="M 267 330v 9h 9v -4.5a 4.5 4.5, 0, 0, 0, -4.5 -4.5" transform="rotate(-90,271.5,334.5)"/><rect x="267" y="348" width="9" height="9" transform="rotate(0,271.5,352.5)"/><rect x="267" y="357" width="9" height="9" transform="rotate(0,271.5,361.5)"/><rect x="267" y="366" width="9" height="9" transform="rotate(0,271.5,370.5)"/><rect x="276" y="15" width="9" height="9" transform="rotate(0,280.5,19.5)"/><rect x="276" y="33" width="9" height="9" transform="rotate(0,280.5,37.5)"/><path d="M 276 42v 9h 9v -4.5a 4.5 4.5, 0, 0, 0, -4.5 -4.5" transform="rotate(90,280.5,46.5)"/><rect x="276" y="78" width="9" height="9" transform="rotate(0,280.5,82.5)"/><path d="M 276 96v 9h 9v -4.5a 4.5 4.5, 0, 0, 0, -4.5 -4.5" transform="rotate(90,280.5,100.5)"/><rect x="276" y="114" width="9" height="9" transform="rotate(0,280.5,118.5)"/><rect x="276" y="123" width="9" height="9" transform="rotate(0,280.5,127.5)"/><path d="M 276 132v 9h 9v -4.5a 4.5 4.5, 0, 0, 0, -4.5 -4.5" transform="rotate(90,280.5,136.5)"/><path d="M 276 150v 4.5a 4.5 4.5, 0, 0, 0, 4.5 4.5h 4.5v -4.5a 4.5 4.5, 0, 0, 0, -4.5 -4.5" transform="rotate(90,280.5,154.5)"/><rect x="276" y="186" width="9" height="9" transform="rotate(0,280.5,190.5)"/><rect x="276" y="195" width="9" height="9" transform="rotate(0,280.5,199.5)"/><rect x="276" y="204" width="9" height="9" transform="rotate(0,280.5,208.5)"/><path d="M 276 213v 9h 9v -4.5a 4.5 4.5, 0, 0, 0, -4.5 -4.5" transform="rotate(90,280.5,217.5)"/><path d="M 276 249v 9h 9v -4.5a 4.5 4.5, 0, 0, 0, -4.5 -4.5" transform="rotate(-90,280.5,253.5)"/><rect x="276" y="258" width="9" height="9" transform="rotate(0,280.5,262.5)"/><rect x="276" y="276" width="9" height="9" transform="rotate(0,280.5,280.5)"/><path d="M 276 285v 9h 9v -4.5a 4.5 4.5, 0, 0, 0, -4.5 -4.5" transform="rotate(90,280.5,289.5)"/><path d="M 276 303v 4.5a 4.5 4.5, 0, 0, 0, 4.5 4.5h 4.5v -4.5a 4.5 4.5, 0, 0, 0, -4.5 -4.5" transform="rotate(90,280.5,307.5)"/><rect x="276" y="330" width="9" height="9" transform="rotate(0,280.5,334.5)"/><path d="M 276 339v 9h 9v -4.5a 4.5 4.5, 0, 0, 0, -4.5 -4.5" transform="rotate(90,280.5,343.5)"/><rect x="276" y="366" width="9" height="9" transform="rotate(0,280.5,370.5)"/><path d="M 276 375v 9h 9v -4.5a 4.5 4.5, 0, 0, 0, -4.5 -4.5" transform="rotate(90,280.5,379.5)"/><rect x="285" y="15" width="9" height="9" transform="rotate(0,289.5,19.5)"/><rect x="285" y="33" width="9" height="9" transform="rotate(0,289.5,37.5)"/><path d="M 285 69v 9h 9v -4.5a 4.5 4.5, 0, 0, 0, -4.5 -4.5" transform="rotate(-90,289.5,73.5)"/><rect x="285" y="78" width="9" height="9" transform="rotate(0,289.5,82.5)"/><rect x="285" y="87" width="9" height="9" transform="rotate(0,289.5,91.5)"/><path d="M 285 105v 9h 9v -4.5a 4.5 4.5, 0, 0, 0, -4.5 -4.5" transform="rotate(-90,289.5,109.5)"/><path d="M 285 114v 9h 9v -4.5a 4.5 4.5, 0, 0, 0, -4.5 -4.5" transform="rotate(90,289.5,118.5)"/><path d="M 285 141v 9h 9v -4.5a 4.5 4.5, 0, 0, 0, -4.5 -4.5" transform="rotate(-90,289.5,145.5)"/><path d="M 285 159v 9h 9v -4.5a 4.5 4.5, 0, 0, 0, -4.5 -4.5" transform="rotate(-90,289.5,163.5)"/><path d="M 285 177v 9h 9v -4.5a 4.5 4.5, 0, 0, 0, -4.5 -4.5" transform="rotate(-90,289.5,181.5)"/><path d="M 285 204v 9h 9v -4.5a 4.5 4.5, 0, 0, 0, -4.5 -4.5" transform="rotate(90,289.5,208.5)"/><path d="M 285 240v 4.5a 4.5 4.5, 0, 0, 0, 4.5 4.5h 4.5v -4.5a 4.5 4.5, 0, 0, 0, -4.5 -4.5" transform="rotate(90,289.5,244.5)"/><rect x="285" y="258" width="9" height="9" transform="rotate(0,289.5,262.5)"/><rect x="285" y="267" width="9" height="9" transform="rotate(0,289.5,271.5)"/><path d="M 285 276v 9h 9v -4.5a 4.5 4.5, 0, 0, 0, -4.5 -4.5" transform="rotate(90,289.5,280.5)"/><path d="M 285 294v 9h 9v -4.5a 4.5 4.5, 0, 0, 0, -4.5 -4.5" transform="rotate(-90,289.5,298.5)"/><path d="M 285 312v 9h 9v -4.5a 4.5 4.5, 0, 0, 0, -4.5 -4.5" transform="rotate(-90,289.5,316.5)"/><rect x="285" y="321" width="9" height="9" transform="rotate(0,289.5,325.5)"/><rect x="285" y="330" width="9" height="9" transform="rotate(0,289.5,334.5)"/><path d="M 285 348v 9h 9v -4.5a 4.5 4.5, 0, 0, 0, -4.5 -4.5" transform="rotate(-90,289.5,352.5)"/><rect x="294" y="15" width="9" height="9" transform="rotate(0,298.5,19.5)"/><rect x="294" y="33" width="9" height="9" transform="rotate(0,298.5,37.5)"/><rect x="294" y="42" width="9" height="9" transform="rotate(0,298.5,46.5)"/><rect x="294" y="51" width="9" height="9" transform="rotate(0,298.5,55.5)"/><rect x="294" y="60" width="9" height="9" transform="rotate(0,298.5,64.5)"/><rect x="294" y="78" width="9" height="9" transform="rotate(0,298.5,82.5)"/><rect x="294" y="87" width="9" height="9" transform="rotate(0,298.5,91.5)"/><path d="M 294 123v 9h 9v -4.5a 4.5 4.5, 0, 0, 0, -4.5 -4.5" transform="rotate(-90,298.5,127.5)"/><rect x="294" y="132" width="9" height="9" transform="rotate(0,298.5,136.5)"/><rect x="294" y="141" width="9" height="9" transform="rotate(0,298.5,145.5)"/><rect x="294" y="159" width="9" height="9" transform="rotate(0,298.5,163.5)"/><rect x="294" y="168" width="9" height="9" transform="rotate(0,298.5,172.5)"/><rect x="294" y="177" width="9" height="9" transform="rotate(0,298.5,181.5)"/><path d="M 294 195v 9h 9v -4.5a 4.5 4.5, 0, 0, 0, -4.5 -4.5" transform="rotate(-90,298.5,199.5)"/><path d="M 294 213v 9h 9v -4.5a 4.5 4.5, 0, 0, 0, -4.5 -4.5" transform="rotate(-90,298.5,217.5)"/><rect x="294" y="222" width="9" height="9" transform="rotate(0,298.5,226.5)"/><path d="M 294 231v 9h 9v -4.5a 4.5 4.5, 0, 0, 0, -4.5 -4.5" transform="rotate(90,298.5,235.5)"/><rect x="294" y="258" width="9" height="9" transform="rotate(0,298.5,262.5)"/><rect x="294" y="294" width="9" height="9" transform="rotate(0,298.5,298.5)"/><rect x="294" y="303" width="9" height="9" transform="rotate(0,298.5,307.5)"/><rect x="294" y="312" width="9" height="9" transform="rotate(0,298.5,316.5)"/><rect x="294" y="321" width="9" height="9" transform="rotate(0,298.5,325.5)"/><rect x="294" y="330" width="9" height="9" transform="rotate(0,298.5,334.5)"/><rect x="294" y="339" width="9" height="9" transform="rotate(0,298.5,343.5)"/><path d="M 294 348v 9h 9v -4.5a 4.5 4.5, 0, 0, 0, -4.5 -4.5" transform="rotate(90,298.5,352.5)"/><path d="M 303 15v 9h 9v -4.5a 4.5 4.5, 0, 0, 0, -4.5 -4.5" transform="rotate(90,307.5,19.5)"/><rect x="303" y="60" width="9" height="9" transform="rotate(0,307.5,64.5)"/><rect x="303" y="69" width="9" height="9" transform="rotate(0,307.5,73.5)"/><rect x="303" y="78" width="9" height="9" transform="rotate(0,307.5,82.5)"/><rect x="303" y="87" width="9" height="9" transform="rotate(0,307.5,91.5)"/><rect x="303" y="96" width="9" height="9" transform="rotate(0,307.5,100.5)"/><rect x="303" y="141" width="9" height="9" transform="rotate(0,307.5,145.5)"/><rect x="303" y="168" width="9" height="9" transform="rotate(0,307.5,172.5)"/><rect x="303" y="177" width="9" height="9" transform="rotate(0,307.5,181.5)"/><rect x="303" y="186" width="9" height="9" transform="rotate(0,307.5,190.5)"/><path d="M 303 195v 9h 9v -4.5a 4.5 4.5, 0, 0, 0, -4.5 -4.5" transform="rotate(90,307.5,199.5)"/><path d="M 303 222v 9h 9v -4.5a 4.5 4.5, 0, 0, 0, -4.5 -4.5" transform="rotate(90,307.5,226.5)"/><path d="M 303 240v 4.5a 4.5 4.5, 0, 0, 0, 4.5 4.5h 4.5v -4.5a 4.5 4.5, 0, 0, 0, -4.5 -4.5" transform="rotate(90,307.5,244.5)"/><rect x="303" y="258" width="9" height="9" transform="rotate(0,307.5,262.5)"/><rect x="303" y="267" width="9" height="9" transform="rotate(0,307.5,271.5)"/><rect x="303" y="276" width="9" height="9" transform="rotate(0,307.5,280.5)"/><rect x="303" y="294" width="9" height="9" transform="rotate(0,307.5,298.5)"/><rect x="303" y="303" width="9" height="9" transform="rotate(0,307.5,307.5)"/><rect x="303" y="312" width="9" height="9" transform="rotate(0,307.5,316.5)"/><rect x="303" y="321" width="9" height="9" transform="rotate(0,307.5,325.5)"/><rect x="303" y="330" width="9" height="9" transform="rotate(0,307.5,334.5)"/><rect x="303" y="339" width="9" height="9" transform="rotate(0,307.5,343.5)"/><path d="M 303 357v 9h 9v -4.5a 4.5 4.5, 0, 0, 0, -4.5 -4.5" transform="rotate(-90,307.5,361.5)"/><path d="M 303 375v 9h 9v -4.5a 4.5 4.5, 0, 0, 0, -4.5 -4.5" transform="rotate(-90,307.5,379.5)"/><rect x="312" y="87" width="9" height="9" transform="rotate(0,316.5,91.5)"/><rect x="312" y="96" width="9" height="9" transform="rotate(0,316.5,100.5)"/><rect x="312" y="105" width="9" height="9" transform="rotate(0,316.5,109.5)"/><path d="M 312 114v 9h 9v -4.5a 4.5 4.5, 0, 0, 0, -4.5 -4.5" transform="rotate(90,316.5,118.5)"/><path d="M 312 132v 9h 9v -4.5a 4.5 4.5, 0, 0, 0, -4.5 -4.5" transform="rotate(-90,316.5,136.5)"/><rect x="312" y="141" width="9" height="9" transform="rotate(0,316.5,145.5)"/><rect x="312" y="150" width="9" height="9" transform="rotate(0,316.5,154.5)"/><rect x="312" y="159" width="9" height="9" transform="rotate(0,316.5,163.5)"/><rect x="312" y="186" width="9" height="9" transform="rotate(0,316.5,190.5)"/><path d="M 312 231v 4.5a 4.5 4.5, 0, 0, 0, 4.5 4.5h 4.5v -4.5a 4.5 4.5, 0, 0, 0, -4.5 -4.5" transform="rotate(90,316.5,235.5)"/><path d="M 312 249v 4.5a 4.5 4.5, 0, 0, 0, 4.5 4.5h 4.5v -4.5a 4.5 4.5, 0, 0, 0, -4.5 -4.5" transform="rotate(90,316.5,253.5)"/><rect x="312" y="267" width="9" height="9" transform="rotate(0,316.5,271.5)"/><rect x="312" y="276" width="9" height="9" transform="rotate(0,316.5,280.5)"/><path d="M 312 285v 9h 9v -4.5a 4.5 4.5, 0, 0, 0, -4.5 -4.5" transform="rotate(90,316.5,289.5)"/><rect x="312" y="303" width="9" height="9" transform="rotate(0,316.5,307.5)"/><rect x="312" y="339" width="9" height="9" transform="rotate(0,316.5,343.5)"/><path d="M 312 357v 9h 9v -4.5a 4.5 4.5, 0, 0, 0, -4.5 -4.5" transform="rotate(90,316.5,361.5)"/><path d="M 312 375v 9h 9v -4.5a 4.5 4.5, 0, 0, 0, -4.5 -4.5" transform="rotate(90,316.5,379.5)"/><rect x="321" y="132" width="9" height="9" transform="rotate(0,325.5,136.5)"/><rect x="321" y="150" width="9" height="9" transform="rotate(0,325.5,154.5)"/><rect x="321" y="159" width="9" height="9" transform="rotate(0,325.5,163.5)"/><rect x="321" y="168" width="9" height="9" transform="rotate(0,325.5,172.5)"/><rect x="321" y="177" width="9" height="9" transform="rotate(0,325.5,181.5)"/><rect x="321" y="186" width="9" height="9" transform="rotate(0,325.5,190.5)"/><path d="M 321 195v 9h 9v -4.5a 4.5 4.5, 0, 0, 0, -4.5 -4.5" transform="rotate(90,325.5,199.5)"/><path d="M 321 222v 9h 9v -4.5a 4.5 4.5, 0, 0, 0, -4.5 -4.5" transform="rotate(-90,325.5,226.5)"/><path d="M 321 258v 4.5a 4.5 4.5, 0, 0, 0, 4.5 4.5h 4.5v -4.5a 4.5 4.5, 0, 0, 0, -4.5 -4.5" transform="rotate(90,325.5,262.5)"/><rect x="321" y="276" width="9" height="9" transform="rotate(0,325.5,280.5)"/><path d="M 321 294v 9h 9v -4.5a 4.5 4.5, 0, 0, 0, -4.5 -4.5" transform="rotate(-90,325.5,298.5)"/><rect x="321" y="303" width="9" height="9" transform="rotate(0,325.5,307.5)"/><path d="M 321 321v 4.5a 4.5 4.5, 0, 0, 0, 4.5 4.5h 4.5v -4.5a 4.5 4.5, 0, 0, 0, -4.5 -4.5" transform="rotate(90,325.5,325.5)"/><rect x="321" y="339" width="9" height="9" transform="rotate(0,325.5,343.5)"/><path d="M 330 105v 9h 9v -4.5a 4.5 4.5, 0, 0, 0, -4.5 -4.5" transform="rotate(-90,334.5,109.5)"/><path d="M 330 132v 9h 9v -4.5a 4.5 4.5, 0, 0, 0, -4.5 -4.5" transform="rotate(90,334.5,136.5)"/><rect x="330" y="150" width="9" height="9" transform="rotate(0,334.5,154.5)"/><rect x="330" y="159" width="9" height="9" transform="rotate(0,334.5,163.5)"/><path d="M 330 168v 9h 9v -4.5a 4.5 4.5, 0, 0, 0, -4.5 -4.5" transform="rotate(90,334.5,172.5)"/><path d="M 330 204v 9h 9v -4.5a 4.5 4.5, 0, 0, 0, -4.5 -4.5" transform="rotate(-90,334.5,208.5)"/><rect x="330" y="222" width="9" height="9" transform="rotate(0,334.5,226.5)"/><rect x="330" y="231" width="9" height="9" transform="rotate(0,334.5,235.5)"/><path d="M 330 240v 9h 9v -4.5a 4.5 4.5, 0, 0, 0, -4.5 -4.5" transform="rotate(90,334.5,244.5)"/><path d="M 330 267v 9h 9v -4.5a 4.5 4.5, 0, 0, 0, -4.5 -4.5" transform="rotate(-90,334.5,271.5)"/><rect x="330" y="276" width="9" height="9" transform="rotate(0,334.5,280.5)"/><rect x="330" y="285" width="9" height="9" transform="rotate(0,334.5,289.5)"/><rect x="330" y="294" width="9" height="9" transform="rotate(0,334.5,298.5)"/><rect x="330" y="303" width="9" height="9" transform="rotate(0,334.5,307.5)"/><rect x="330" y="339" width="9" height="9" transform="rotate(0,334.5,343.5)"/><path d="M 330 348v 9h 9v -4.5a 4.5 4.5, 0, 0, 0, -4.5 -4.5" transform="rotate(90,334.5,352.5)"/><path d="M 330 366v 9h 9v -4.5a 4.5 4.5, 0, 0, 0, -4.5 -4.5" transform="rotate(-90,334.5,370.5)"/><rect x="330" y="375" width="9" height="9" transform="rotate(0,334.5,379.5)"/><path d="M 339 87v 9h 9v -4.5a 4.5 4.5, 0, 0, 0, -4.5 -4.5" transform="rotate(-90,343.5,91.5)"/><rect x="339" y="96" width="9" height="9" transform="rotate(0,343.5,100.5)"/><rect x="339" y="105" width="9" height="9" transform="rotate(0,343.5,109.5)"/><path d="M 339 114v 9h 9v -4.5a 4.5 4.5, 0, 0, 0, -4.5 -4.5" transform="rotate(90,343.5,118.5)"/><path d="M 339 141v 4.5a 4.5 4.5, 0, 0, 0, 4.5 4.5h 4.5v -4.5a 4.5 4.5, 0, 0, 0, -4.5 -4.5" transform="rotate(90,343.5,145.5)"/><rect x="339" y="159" width="9" height="9" transform="rotate(0,343.5,163.5)"/><path d="M 339 177v 9h 9v -4.5a 4.5 4.5, 0, 0, 0, -4.5 -4.5" transform="rotate(-90,343.5,181.5)"/><rect x="339" y="186" width="9" height="9" transform="rotate(0,343.5,190.5)"/><path d="M 339 204v 9h 9v -4.5a 4.5 4.5, 0, 0, 0, -4.5 -4.5" transform="rotate(90,343.5,208.5)"/><rect x="339" y="222" width="9" height="9" transform="rotate(0,343.5,226.5)"/><path d="M 339 231v 9h 9v -4.5a 4.5 4.5, 0, 0, 0, -4.5 -4.5" transform="rotate(90,343.5,235.5)"/><path d="M 339 249v 4.5a 4.5 4.5, 0, 0, 0, 4.5 4.5h 4.5v -4.5a 4.5 4.5, 0, 0, 0, -4.5 -4.5" transform="rotate(90,343.5,253.5)"/><rect x="339" y="267" width="9" height="9" transform="rotate(0,343.5,271.5)"/><rect x="339" y="303" width="9" height="9" transform="rotate(0,343.5,307.5)"/><rect x="339" y="312" width="9" height="9" transform="rotate(0,343.5,316.5)"/><rect x="339" y="321" width="9" height="9" transform="rotate(0,343.5,325.5)"/><rect x="339" y="330" width="9" height="9" transform="rotate(0,343.5,334.5)"/><path d="M 339 339v 9h 9v -4.5a 4.5 4.5, 0, 0, 0, -4.5 -4.5" transform="rotate(90,343.5,343.5)"/><path d="M 339 357v 9h 9v -4.5a 4.5 4.5, 0, 0, 0, -4.5 -4.5" transform="rotate(-90,343.5,361.5)"/><rect x="339" y="375" width="9" height="9" transform="rotate(0,343.5,379.5)"/><rect x="348" y="87" width="9" height="9" transform="rotate(0,352.5,91.5)"/><path d="M 348 105v 9h 9v -4.5a 4.5 4.5, 0, 0, 0, -4.5 -4.5" transform="rotate(90,352.5,109.5)"/><path d="M 348 123v 9h 9v -4.5a 4.5 4.5, 0, 0, 0, -4.5 -4.5" transform="rotate(-90,352.5,127.5)"/><path d="M 348 132v 9h 9v -4.5a 4.5 4.5, 0, 0, 0, -4.5 -4.5" transform="rotate(90,352.5,136.5)"/><path d="M 348 150v 9h 9v -4.5a 4.5 4.5, 0, 0, 0, -4.5 -4.5" transform="rotate(-90,352.5,154.5)"/><path d="M 348 159v 9h 9v -4.5a 4.5 4.5, 0, 0, 0, -4.5 -4.5" transform="rotate(90,352.5,163.5)"/><rect x="348" y="186" width="9" height="9" transform="rotate(0,352.5,190.5)"/><rect x="348" y="195" width="9" height="9" transform="rotate(0,352.5,199.5)"/><rect x="348" y="222" width="9" height="9" transform="rotate(0,352.5,226.5)"/><rect x="348" y="267" width="9" height="9" transform="rotate(0,352.5,271.5)"/><path d="M 348 285v 4.5a 4.5 4.5, 0, 0, 0, 4.5 4.5h 4.5v -4.5a 4.5 4.5, 0, 0, 0, -4.5 -4.5" transform="rotate(90,352.5,289.5)"/><rect x="348" y="312" width="9" height="9" transform="rotate(0,352.5,316.5)"/><rect x="348" y="330" width="9" height="9" transform="rotate(0,352.5,334.5)"/><path d="M 348 348v 9h 9v -4.5a 4.5 4.5, 0, 0, 0, -4.5 -4.5" transform="rotate(-90,352.5,352.5)"/><rect x="348" y="357" width="9" height="9" transform="rotate(0,352.5,361.5)"/><rect x="348" y="366" width="9" height="9" transform="rotate(0,352.5,370.5)"/><path d="M 348 375v 9h 9v -4.5a 4.5 4.5, 0, 0, 0, -4.5 -4.5" transform="rotate(90,352.5,379.5)"/><path d="M 357 87v 9h 9v -4.5a 4.5 4.5, 0, 0, 0, -4.5 -4.5" transform="rotate(90,361.5,91.5)"/><rect x="357" y="123" width="9" height="9" transform="rotate(0,361.5,127.5)"/><rect x="357" y="150" width="9" height="9" transform="rotate(0,361.5,154.5)"/><path d="M 357 168v 9h 9v -4.5a 4.5 4.5, 0, 0, 0, -4.5 -4.5" transform="rotate(-90,361.5,172.5)"/><rect x="357" y="177" width="9" height="9" transform="rotate(0,361.5,181.5)"/><rect x="357" y="195" width="9" height="9" transform="rotate(0,361.5,199.5)"/><rect x="357" y="222" width="9" height="9" transform="rotate(0,361.5,226.5)"/><rect x="357" y="231" width="9" height="9" transform="rotate(0,361.5,235.5)"/><path d="M 357 249v 9h 9v -4.5a 4.5 4.5, 0, 0, 0, -4.5 -4.5" transform="rotate(-90,361.5,253.5)"/><rect x="357" y="258" width="9" height="9" transform="rotate(0,361.5,262.5)"/><rect x="357" y="267" width="9" height="9" transform="rotate(0,361.5,271.5)"/><path d="M 357 276v 9h 9v -4.5a 4.5 4.5, 0, 0, 0, -4.5 -4.5" transform="rotate(90,361.5,280.5)"/><path d="M 357 294v 9h 9v -4.5a 4.5 4.5, 0, 0, 0, -4.5 -4.5" transform="rotate(-90,361.5,298.5)"/><rect x="357" y="303" width="9" height="9" transform="rotate(0,361.5,307.5)"/><rect x="357" y="312" width="9" height="9" transform="rotate(0,361.5,316.5)"/><rect x="357" y="321" width="9" height="9" transform="rotate(0,361.5,325.5)"/><rect x="357" y="330" width="9" height="9" transform="rotate(0,361.5,334.5)"/><rect x="357" y="339" width="9" height="9" transform="rotate(0,361.5,343.5)"/><rect x="357" y="357" width="9" height="9" transform="rotate(0,361.5,361.5)"/><rect x="357" y="366" width="9" height="9" transform="rotate(0,361.5,370.5)"/><path d="M 366 96v 9h 9v -4.5a 4.5 4.5, 0, 0, 0, -4.5 -4.5" transform="rotate(-90,370.5,100.5)"/><path d="M 366 105v 9h 9v -4.5a 4.5 4.5, 0, 0, 0, -4.5 -4.5" transform="rotate(90,370.5,109.5)"/><rect x="366" y="123" width="9" height="9" transform="rotate(0,370.5,127.5)"/><path d="M 366 132v 9h 9v -4.5a 4.5 4.5, 0, 0, 0, -4.5 -4.5" transform="rotate(90,370.5,136.5)"/><rect x="366" y="150" width="9" height="9" transform="rotate(0,370.5,154.5)"/><rect x="366" y="159" width="9" height="9" transform="rotate(0,370.5,163.5)"/><rect x="366" y="177" width="9" height="9" transform="rotate(0,370.5,181.5)"/><path d="M 366 195v 9h 9v -4.5a 4.5 4.5, 0, 0, 0, -4.5 -4.5" transform="rotate(90,370.5,199.5)"/><path d="M 366 213v 9h 9v -4.5a 4.5 4.5, 0, 0, 0, -4.5 -4.5" transform="rotate(-90,370.5,217.5)"/><path d="M 366 231v 9h 9v -4.5a 4.5 4.5, 0, 0, 0, -4.5 -4.5" transform="rotate(90,370.5,235.5)"/><rect x="366" y="249" width="9" height="9" transform="rotate(0,370.5,253.5)"/><path d="M 366 267v 9h 9v -4.5a 4.5 4.5, 0, 0, 0, -4.5 -4.5" transform="rotate(90,370.5,271.5)"/><path d="M 366 303v 9h 9v -4.5a 4.5 4.5, 0, 0, 0, -4.5 -4.5" transform="rotate(90,370.5,307.5)"/><path d="M 366 321v 9h 9v -4.5a 4.5 4.5, 0, 0, 0, -4.5 -4.5" transform="rotate(90,370.5,325.5)"/><rect x="366" y="339" width="9" height="9" transform="rotate(0,370.5,343.5)"/><rect x="366" y="348" width="9" height="9" transform="rotate(0,370.5,352.5)"/><rect x="366" y="357" width="9" height="9" transform="rotate(0,370.5,361.5)"/><path d="M 366 366v 9h 9v -4.5a 4.5 4.5, 0, 0, 0, -4.5 -4.5" transform="rotate(90,370.5,370.5)"/><path d="M 375 114v 4.5a 4.5 4.5, 0, 0, 0, 4.5 4.5h 4.5v -4.5a 4.5 4.5, 0, 0, 0, -4.5 -4.5" transform="rotate(90,379.5,118.5)"/><path d="M 375 141v 4.5a 4.5 4.5, 0, 0, 0, 4.5 4.5h 4.5v -4.5a 4.5 4.5, 0, 0, 0, -4.5 -4.5" transform="rotate(90,379.5,145.5)"/><rect x="375" y="159" width="9" height="9" transform="rotate(0,379.5,163.5)"/><rect x="375" y="168" width="9" height="9" transform="rotate(0,379.5,172.5)"/><rect x="375" y="177" width="9" height="9" transform="rotate(0,379.5,181.5)"/><path d="M 375 186v 9h 9v -4.5a 4.5 4.5, 0, 0, 0, -4.5 -4.5" transform="rotate(90,379.5,190.5)"/><rect x="375" y="213" width="9" height="9" transform="rotate(0,379.5,217.5)"/><path d="M 375 222v 9h 9v -4.5a 4.5 4.5, 0, 0, 0, -4.5 -4.5" transform="rotate(90,379.5,226.5)"/><path d="M 375 249v 9h 9v -4.5a 4.5 4.5, 0, 0, 0, -4.5 -4.5" transform="rotate(90,379.5,253.5)"/><path d="M 375 276v 9h 9v -4.5a 4.5 4.5, 0, 0, 0, -4.5 -4.5" transform="rotate(-90,379.5,280.5)"/><path d="M 375 285v 9h 9v -4.5a 4.5 4.5, 0, 0, 0, -4.5 -4.5" transform="rotate(90,379.5,289.5)"/><path d="M 375 330v 9h 9v -4.5a 4.5 4.5, 0, 0, 0, -4.5 -4.5" transform="rotate(-90,379.5,334.5)"/><path d="M 375 339v 9h 9v -4.5a 4.5 4.5, 0, 0, 0, -4.5 -4.5" transform="rotate(90,379.5,343.5)"/></clipPath><clipPath id="clip-path-corners-square-color-0-0"><path clip-rule="evenodd" d="M 15 15v 63h 63v -63zM 24 24h 45v 45h -45z" transform="rotate(0,46.5,46.5)"/></clipPath><clipPath id="clip-path-corners-dot-color-0-0"><rect x="33" y="33" width="27" height="27" transform="rotate(0,46.5,46.5)"/></clipPath><clipPath id="clip-path-corners-square-color-1-0"><path clip-rule="evenodd" d="M 321 15v 63h 63v -63zM 330 24h 45v 45h -45z" transform="rotate(90,352.5,46.5)"/></clipPath><clipPath id="clip-path-corners-dot-color-1-0"><rect x="339" y="33" width="27" height="27" transform="rotate(90,352.5,46.5)"/></clipPath><clipPath id="clip-path-corners-square-color-0-1"><path clip-rule="evenodd" d="M 15 321v 63h 63v -63zM 24 330h 45v 45h -45z" transform="rotate(-90,46.5,352.5)"/></clipPath><clipPath id="clip-path-corners-dot-color-0-1"><rect x="33" y="339" width="27" height="27" transform="rotate(-90,46.5,352.5)"/></clipPath></defs><rect x="0" y="0" height="400" width="400" clip-path="url('#clip-path-background-color')" fill="rgba(0,0,0,0)"/><rect x="15" y="15" height="369" width="369" clip-path="url('#clip-path-dot-color')" fill="#ffffff"/><rect x="15" y="15" height="63" width="63" clip-path="url('#clip-path-corners-square-color-0-0')" fill="#ffffff"/><rect x="33" y="33" height="27" width="27" clip-path="url('#clip-path-corners-dot-color-0-0')" fill="#ffffff"/><rect x="321" y="15" height="63" width="63" clip-path="url('#clip-path-corners-square-color-1-0')" fill="#ffffff"/><rect x="339" y="33" height="27" width="27" clip-path="url('#clip-path-corners-dot-color-1-0')" fill="#ffffff"/><rect x="15" y="321" height="63" width="63" clip-path="url('#clip-path-corners-square-color-0-1')" fill="#ffffff"/><rect x="33" y="339" height="27" width="27" clip-path="url('#clip-path-corners-dot-color-0-1')" fill="#ffffff"/></svg>